<?xml version="1.0" encoding="UTF-8" standalone="no"?>
<svg
   version="1.0"
   width="1280.000000pt"
   height="905.000000pt"
   viewBox="0 0 1280.000000 905.000000"
   preserveAspectRatio="xMidYMid meet"
   id="svg8"
   sodipodi:docname="295648.svg"
   inkscape:version="1.2-beta (1b65182, 2022-04-05)"
   xmlns:inkscape="http://www.inkscape.org/namespaces/inkscape"
   xmlns:sodipodi="http://sodipodi.sourceforge.net/DTD/sodipodi-0.dtd"
   xmlns="http://www.w3.org/2000/svg"
   xmlns:svg="http://www.w3.org/2000/svg">
  <defs
     id="defs12" />
  <sodipodi:namedview
     id="namedview10"
     pagecolor="#505050"
     bordercolor="#ffffff"
     borderopacity="1"
     inkscape:pageshadow="0"
     inkscape:pageopacity="0"
     inkscape:pagecheckerboard="1"
     inkscape:deskcolor="#505050"
     inkscape:document-units="pt"
     showgrid="false"
     inkscape:zoom="0.7218232"
     inkscape:cx="853.39457"
     inkscape:cy="602.64064"
     inkscape:window-width="1920"
     inkscape:window-height="1043"
     inkscape:window-x="0"
     inkscape:window-y="0"
     inkscape:window-maximized="1"
     inkscape:current-layer="svg8" />
  <metadata
     id="metadata2">
Created by potrace 1.15, written by Peter Selinger 2001-2017
</metadata>
  <g
     transform="translate(0.000000,905.000000) scale(0.100000,-0.100000)"
     fill="#000000"
     stroke="none"
     id="g6"
     style="fill:#f9f9f9">
    <path
       d="M1850 7305 l0 -585 -250 0 -250 0 0 -55 0 -55 250 0 250 0 0 -35 0 -35 -201 0 -200 0 3 -51 3 -51 198 2 197 1 0 -551 0 -550 -250 0 -250 0 0 -55 0 -56 250 3 250 3 0 -32 0 -33 -197 -2 -198 -3 -3 -52 -3 -53 200 0 201 0 0 -560 0 -560 -250 0 -250 0 0 -55 0 -55 250 0 250 0 0 -35 0 -35 -200 0 -200 0 0 -50 0 -50 200 0 200 0 0 -510 0 -510 -250 0 -250 0 0 -55 0 -55 250 0 250 0 0 -35 0 -34 -197 0 -198 0 -3 -50 -3 -51 200 0 201 0 0 -400 0 -400 -685 0 -685 0 0 -52 0 -53 685 2 685 3 0 -35 0 -35 -635 0 -635 0 0 -55 0 -55 635 0 635 0 0 -445 0 -445 55 0 55 0 0 -87 0 -88 50 0 50 0 0 533 0 532 485 0 485 0 0 -220 0 -220 55 0 55 0 0 -85 0 -85 50 0 50 0 0 305 0 305 545 0 545 0 0 -220 0 -220 50 0 50 0 0 -85 0 -85 55 0 55 0 0 305 0 305 595 0 595 0 0 -220 0 -220 55 0 55 0 0 -85 0 -85 50 0 50 0 0 305 0 305 585 0 585 0 0 -220 0 -220 50 0 50 0 0 -85 0 -85 55 0 55 0 0 305 0 305 560 0 560 0 0 -220 0 -220 50 0 50 0 0 -85 0 -85 55 0 55 0 0 305 0 305 590 0 590 0 0 -220 0 -220 50 0 50 0 0 -85 0 -85 55 0 55 0 0 305 0 305 655 0 655 0 0 -220 0 -220 55 0 55 0 0 -85 0 -85 50 0 50 0 0 305 0 305 380 0 380 0 0 55 0 55 -381 0 -380 0 3 33 3 32 325 2 325 3 3 50 3 50 -330 0 -331 0 0 165 0 165 -50 0 -50 0 0 91 0 90 -52 -3 -53 -3 -3 -252 -2 -253 -655 0 -655 0 0 165 0 165 -50 0 -49 0 -3 88 -3 87 -52 3 -53 3 0 -255 0 -256 -590 0 -590 0 0 165 0 165 -50 0 -49 0 -3 88 -3 87 -52 3 -53 3 0 -255 0 -256 -560 0 -560 0 0 165 0 165 -50 0 -49 0 -3 88 -3 87 -52 3 -53 3 0 -256 0 -255 -582 2 -583 3 -3 162 -2 163 -50 0 -50 0 0 91 0 90 -52 -3 -53 -3 -3 -252 -2 -253 -595 0 -596 0 3 146 3 146 290 98 c549 185 863 303 1185 445 1047 464 1896 941 2400 1349 398 321 1138 1005 1305 1205 28 33 52 60 55 60 3 1 112 -87 242 -194 130 -107 241 -195 246 -195 5 0 14 12 20 28 17 44 543 2624 538 2638 -4 10 -20 7 -67 -12 -34 -14 -63 -23 -65 -21 -2 2 5 48 16 102 24 115 24 115 7 115 -25 0 -1395 -567 -1882 -778 -425 -184 -563 -251 -599 -291 -15 -17 -12 -21 60 -80 l76 -63 -23 -24 c-27 -29 -43 -11 156 -174 83 -67 152 -124 154 -126 5 -4 -162 -201 -324 -383 -1044 -1169 -2300 -2138 -3752 -2894 -250 -130 -603 -300 -832 -402 -170 -75 -598 -255 -607 -255 -2 0 -4 16 -4 35 l0 35 -55 0 -55 0 0 -58 0 -58 -217 -81 c-246 -92 -718 -253 -739 -253 -12 0 -14 60 -14 370 l0 370 311 0 310 0 -3 50 -3 51 -305 2 -305 2 -3 32 -3 33 257 2 256 3 2 53 1 52 -257 0 -258 0 0 510 0 510 310 0 310 0 0 50 0 50 -310 0 -310 0 0 35 0 35 255 0 255 0 0 55 0 55 -255 0 -255 0 0 560 0 560 311 0 310 0 -3 53 -3 52 -307 3 -308 2 0 30 0 30 256 2 256 3 2 53 1 52 -258 0 -257 0 2 548 3 547 308 3 307 2 0 50 0 50 -310 0 -310 0 0 35 0 35 258 0 257 0 -1 52 -2 53 -256 3 -256 2 0 495 0 495 -50 0 -50 0 0 90 0 90 -55 0 -55 0 0 -585z m2480 -5635 l0 -110 -397 0 c-218 0 -394 2 -392 5 3 2 77 23 164 45 184 47 577 159 584 165 2 3 13 5 23 5 16 0 18 -10 18 -110z m-1765 -100 c-11 -5 -36 -8 -55 -8 l-35 0 30 8 c17 4 41 8 55 8 23 1 23 0 5 -8z m-365 -119 c0 -6 -111 -41 -130 -41 -10 0 -14 32 -5 42 7 7 135 6 135 -1z m830 -26 l0 -35 -222 1 c-123 1 -209 4 -193 6 99 12 404 58 413 62 1 0 2 -15 2 -34z m1300 0 l0 -35 -545 0 -545 0 0 28 c0 16 3 32 6 35 4 4 249 7 545 7 l539 0 0 -35z m1400 0 l0 -35 -595 0 -595 0 0 28 c0 16 3 32 7 35 3 4 271 7 595 7 l588 0 0 -35z m1378 -2 l3 -33 -585 0 -586 0 0 28 c0 16 3 32 7 35 3 4 265 6 582 4 l576 -2 3 -32z m1330 0 l3 -33 -560 0 -561 0 0 35 0 35 558 -2 557 -3 3 -32z m1390 0 l3 -33 -590 0 -591 0 0 35 0 35 588 -2 587 -3 3 -32z m1522 2 l0 -35 -655 0 -655 0 0 35 0 35 655 0 655 -1 0 -34z"
       id="path4"
       style="fill:#f9f9f9" />
  </g>
</svg>
