<?xml version="1.0" encoding="UTF-8" standalone="no"?>
<svg
   version="1.0"
   width="1280.000000pt"
   height="844.000000pt"
   viewBox="0 0 1280.000000 844.000000"
   preserveAspectRatio="xMidYMid meet"
   id="svg32"
   sodipodi:docname="312609.svg"
   inkscape:version="1.2-beta (1b65182, 2022-04-05)"
   xmlns:inkscape="http://www.inkscape.org/namespaces/inkscape"
   xmlns:sodipodi="http://sodipodi.sourceforge.net/DTD/sodipodi-0.dtd"
   xmlns="http://www.w3.org/2000/svg"
   xmlns:svg="http://www.w3.org/2000/svg">
  <defs
     id="defs36" />
  <sodipodi:namedview
     id="namedview34"
     pagecolor="#505050"
     bordercolor="#ffffff"
     borderopacity="1"
     inkscape:pageshadow="0"
     inkscape:pageopacity="0"
     inkscape:pagecheckerboard="1"
     inkscape:deskcolor="#505050"
     inkscape:document-units="pt"
     showgrid="false"
     inkscape:zoom="0.76171875"
     inkscape:cx="853.33333"
     inkscape:cy="563.2"
     inkscape:window-width="1920"
     inkscape:window-height="1043"
     inkscape:window-x="0"
     inkscape:window-y="0"
     inkscape:window-maximized="1"
     inkscape:current-layer="g30" />
  <metadata
     id="metadata2">
Created by potrace 1.15, written by Peter Selinger 2001-2017
</metadata>
  <g
     transform="translate(0.000000,844.000000) scale(0.100000,-0.100000)"
     fill="#000000"
     stroke="none"
     id="g30">
    <path
       d="M6786 8417 c-11 -41 -6 -53 28 -65 49 -18 84 -48 106 -93 22 -42 26 -121 9 -166 -23 -62 -109 -122 -175 -123 -32 0 -32 0 -43 -75 -15 -106 -14 -125 7 -125 31 -1 95 -54 120 -100 20 -37 23 -55 19 -103 -9 -101 -72 -166 -176 -183 -44 -7 -46 -10 -56 -94 -4 -30 -9 -63 -11 -72 -4 -12 7 -22 38 -36 108 -48 155 -172 103 -273 -31 -58 -114 -109 -181 -109 -18 0 -22 -8 -28 -57 -4 -32 -9 -75 -13 -95 -5 -35 -4 -37 33 -53 187 -78 153 -354 -45 -373 l-49 -4 -11 -75 c-17 -114 -16 -120 23 -133 44 -14 101 -77 117 -128 34 -116 -62 -252 -179 -252 -25 0 -33 -5 -36 -22 -5 -22 -26 -162 -26 -171 0 -3 13 -7 30 -10 84 -17 154 -140 130 -228 -23 -85 -102 -149 -182 -149 -20 0 -39 -6 -41 -12 -3 -8 -6 -6 -6 5 -1 13 7 17 39 17 47 0 106 27 137 63 l21 25 -81 35 c-323 139 -640 172 -929 98 -89 -23 -213 -75 -213 -90 0 -5 -4 -13 -9 -18 -6 -5 -6 -2 -1 6 6 11 4 13 -8 8 -35 -13 -97 -58 -92 -67 3 -5 0 -12 -6 -16 -8 -5 -9 -3 -4 6 5 8 3 11 -6 8 -8 -3 -14 -10 -14 -16 0 -6 -7 -17 -15 -24 -12 -11 -12 -11 -1 5 7 9 9 17 3 17 -12 0 -34 -25 -27 -32 3 -3 -3 -11 -12 -19 -16 -13 -17 -12 -4 4 20 25 -2 21 -25 -5 -12 -14 -14 -18 -4 -13 8 4 4 -4 -9 -18 -14 -15 -29 -27 -34 -27 -5 0 1 9 14 20 13 10 19 19 13 20 -13 0 -56 -45 -49 -52 3 -2 -7 -15 -23 -29 l-27 -24 24 28 c14 15 20 27 15 27 -5 0 -104 -92 -219 -204 l-210 -204 110 29 c61 16 150 40 198 53 72 19 87 21 83 9 -5 -11 -2 -13 10 -9 8 3 22 6 29 6 18 0 76 50 70 59 -2 5 10 21 28 37 31 29 32 29 8 2 -34 -39 -11 -35 25 4 16 17 22 27 14 23 -10 -5 -8 -1 4 13 21 25 36 31 16 7 -20 -24 5 -17 26 7 12 13 13 18 4 13 -9 -5 -8 0 4 13 21 25 36 31 16 7 -8 -9 -9 -15 -2 -15 11 0 27 19 27 32 0 3 4 10 9 15 5 5 6 2 1 -6 -5 -9 -3 -12 6 -9 8 3 14 10 14 16 0 6 7 17 15 24 12 11 12 11 1 -4 -19 -26 -6 -22 42 11 151 103 352 161 557 162 l95 0 29 105 c16 58 34 107 40 110 6 2 25 -1 41 -6 30 -10 30 -10 -5 -5 l-36 5 -27 -98 c-15 -53 -27 -101 -27 -105 0 -4 24 -7 53 -7 50 0 172 -20 250 -41 37 -10 39 -12 33 -42 -3 -18 -8 -55 -12 -84 l-6 -52 38 -16 c99 -41 150 -154 113 -252 -24 -66 -105 -123 -172 -123 -30 0 -35 -4 -40 -28 l-6 -28 -143 0 c-161 1 -258 -6 -309 -22 -19 -6 -63 -21 -99 -32 -80 -25 -195 -83 -195 -98 0 -6 -4 -14 -9 -19 -5 -5 -6 -2 -1 6 5 9 3 12 -6 9 -8 -3 -14 -10 -14 -16 0 -5 -4 -14 -9 -19 -5 -5 -6 -2 -1 6 5 9 3 12 -6 9 -8 -3 -14 -10 -14 -16 0 -5 -4 -14 -9 -19 -5 -5 -6 -2 -1 6 5 9 3 12 -6 9 -8 -3 -13 -10 -12 -16 1 -5 -5 -16 -15 -24 -15 -12 -16 -11 -3 5 7 9 9 17 3 17 -12 0 -34 -25 -27 -32 3 -3 -3 -11 -12 -19 -16 -13 -17 -12 -4 4 7 9 9 17 4 17 -13 0 -45 -35 -38 -42 3 -3 -5 -13 -17 -24 l-23 -19 19 23 c11 12 15 22 9 22 -12 0 -55 -45 -48 -51 3 -3 -10 -19 -28 -35 l-32 -29 29 33 c17 17 25 32 20 32 -6 0 -104 -92 -219 -204 l-210 -204 130 34 c72 19 158 41 193 51 44 11 59 19 50 25 -10 7 -10 9 2 5 8 -2 14 -12 14 -20 -1 -13 4 -15 25 -11 38 10 53 19 81 50 18 21 19 24 5 14 -11 -8 -4 3 14 23 19 20 37 37 40 37 2 0 -6 -11 -19 -25 -13 -14 -19 -25 -14 -25 14 0 66 55 59 62 -3 3 3 11 12 19 16 13 17 12 4 -3 -7 -10 -9 -18 -4 -18 13 0 45 35 38 42 -3 3 3 11 12 19 16 13 17 12 4 -3 -8 -11 -9 -18 -3 -18 11 0 27 19 27 32 0 3 4 10 9 15 5 5 6 3 2 -4 -11 -19 9 -16 25 4 10 11 10 14 2 9 -19 -11 -16 -1 4 15 11 10 14 10 9 2 -10 -19 2 -16 40 8 19 11 32 25 29 29 -3 5 0 12 6 16 8 4 9 3 5 -4 -11 -18 -1 -15 73 23 38 19 80 36 93 39 12 2 57 13 98 25 100 27 270 42 383 34 51 -3 89 -2 85 2 -4 4 -60 10 -125 12 -65 3 -120 7 -123 10 -3 3 48 3 113 0 116 -5 118 -5 102 13 -10 11 -37 27 -61 36 -39 15 -44 20 -43 48 0 17 4 49 9 71 8 33 8 28 4 -28 -4 -58 -2 -68 13 -73 80 -24 139 -91 149 -167 5 -36 1 -56 -19 -100 -31 -68 -81 -105 -154 -114 l-50 -5 -6 -59 c-4 -32 -9 -75 -13 -97 -6 -37 -5 -39 24 -45 39 -8 95 -57 116 -101 35 -74 10 -174 -57 -233 -34 -29 -57 -38 -127 -45 -24 -3 -25 -7 -32 -83 -4 -44 -9 -88 -12 -97 -3 -12 6 -20 30 -28 111 -37 164 -166 112 -270 -33 -63 -86 -102 -147 -108 -54 -5 -54 -5 -66 -97 -3 -27 -8 -59 -10 -71 -4 -16 3 -23 31 -33 93 -34 150 -137 126 -228 -24 -87 -82 -139 -169 -151 -46 -7 -48 -8 -54 -47 -18 -114 -20 -145 -6 -145 30 0 107 -60 127 -101 24 -46 28 -116 10 -164 -24 -64 -109 -125 -173 -125 -38 0 -38 0 -52 -135 l-6 -60 50 -21 c73 -32 106 -86 106 -174 0 -56 -4 -73 -28 -108 -30 -46 -83 -78 -146 -88 -44 -7 -56 -26 -49 -75 3 -21 10 -25 56 -30 29 -4 68 -10 87 -13 31 -6 36 -4 50 24 9 17 37 44 63 61 109 69 265 8 289 -113 6 -29 5 -29 137 -49 73 -11 81 -11 90 5 39 66 104 106 169 106 45 0 103 -23 135 -53 26 -24 62 -88 62 -110 0 -10 28 -17 99 -26 l99 -13 49 50 c80 83 177 92 263 23 27 -22 65 -86 75 -128 0 0 47 -8 105 -17 72 -10 106 -12 109 -5 8 25 68 83 98 95 41 18 115 18 156 0 41 -17 91 -74 107 -120 13 -40 13 -40 135 -57 70 -9 90 -9 93 1 10 30 67 80 107 96 107 40 224 -21 254 -134 7 -26 12 -28 113 -43 l106 -15 16 28 c56 94 195 120 283 52 33 -25 73 -90 73 -119 0 -8 2 -15 5 -15 3 0 51 -7 107 -15 55 -9 102 -14 102 -13 20 37 68 84 100 99 106 48 216 2 264 -112 l20 -45 89 -12 c120 -16 116 -16 137 18 10 17 34 42 54 55 107 69 240 23 287 -98 l17 -45 87 -12 c47 -6 93 -14 102 -16 11 -3 24 7 39 31 47 76 163 108 246 69 44 -21 92 -79 100 -121 7 -35 -1 -32 134 -53 89 -13 84 -15 113 29 31 46 97 81 153 81 80 -1 163 -62 190 -142 10 -32 13 -33 94 -46 45 -7 84 -11 85 -10 1 2 6 24 9 50 7 44 5 48 -21 62 -98 51 -135 175 -79 270 28 49 62 74 121 91 l40 12 14 98 c14 93 14 99 -4 109 -166 98 -147 313 31 366 l42 13 12 81 c6 44 14 88 16 96 2 10 -10 23 -33 35 -148 80 -127 291 34 351 26 9 49 19 51 20 8 5 32 189 25 191 -110 37 -162 193 -96 287 31 44 77 75 126 85 31 7 32 8 44 86 18 123 17 128 -20 146 -67 33 -109 128 -93 214 12 62 106 145 165 145 16 0 21 12 31 88 6 48 13 94 16 102 2 10 -9 23 -32 35 -150 81 -128 294 36 352 34 12 52 25 55 38 9 42 26 177 23 179 -70 44 -88 61 -107 98 -58 120 5 251 134 278 29 6 31 9 42 80 20 124 18 134 -22 153 -45 21 -86 85 -93 142 -10 91 50 181 140 206 24 7 44 13 45 14 3 2 33 199 30 200 -91 52 -130 108 -130 189 0 86 49 151 139 185 l49 19 12 78 c17 116 17 116 -25 142 -71 44 -104 122 -88 207 12 61 101 145 156 145 25 0 27 3 43 117 l14 92 -44 28 c-46 29 -93 106 -93 152 0 86 61 169 140 192 25 7 46 14 48 15 2 1 10 44 17 95 14 86 13 95 -2 104 -84 50 -128 133 -114 211 16 84 62 135 144 159 l42 12 14 99 c13 92 12 99 -4 109 -102 59 -140 164 -96 262 22 48 85 98 136 107 24 5 35 12 35 24 0 9 3 27 6 38 7 26 -2 30 -88 39 l-65 7 -23 -46 c-54 -112 -190 -147 -289 -75 -47 34 -81 94 -81 143 0 39 10 35 -129 56 -36 5 -65 8 -65 7 -1 -1 -12 -24 -26 -51 -58 -115 -211 -144 -304 -58 -35 33 -65 97 -66 138 l0 31 -96 12 c-53 7 -97 11 -98 9 -1 -2 -9 -18 -16 -36 -31 -79 -112 -127 -199 -118 -96 9 -161 73 -177 175 -4 23 -9 41 -13 41 -3 0 -45 6 -93 14 l-87 13 -25 -51 c-42 -86 -138 -131 -224 -105 -82 24 -142 98 -142 173 0 29 -4 37 -22 40 -22 5 -162 26 -172 26 -2 0 -10 -16 -16 -35 -15 -44 -92 -113 -137 -121 -51 -10 -122 1 -151 23 -52 39 -85 90 -90 141 l-4 49 -82 12 c-113 16 -113 16 -126 -23 -6 -19 -29 -50 -50 -70 -123 -111 -305 -41 -327 125 -4 28 -11 39 -27 43 -18 4 -139 20 -158 21 -4 0 -18 -20 -30 -44 -33 -64 -86 -103 -147 -109 -81 -7 -118 4 -166 53 -36 35 -46 54 -56 103 l-13 60 -55 6 c-31 4 -73 9 -93 13 -35 5 -37 4 -53 -33 -54 -129 -212 -165 -314 -70 -39 36 -61 82 -61 129 l0 34 -77 11 c-114 18 -120 17 -126 -18 -9 -43 -75 -104 -129 -119 -116 -33 -235 44 -246 159 l-4 49 -72 11 c-39 6 -82 12 -96 15 -22 3 -29 -3 -48 -46 -31 -67 -84 -101 -162 -107 -109 -8 -193 59 -208 164 -8 54 -1 50 -133 67 -42 6 -47 4 -53 -16z m-948 -3114 c-21 -2 -57 -2 -80 0 -24 2 -7 4 37 4 44 0 63 -2 43 -4z m-145 -10 c-13 -2 -33 -2 -45 0 -13 2 -3 4 22 4 25 0 35 -2 23 -4z m227 3 c0 -1 -4 -16 -9 -32 -6 -16 -19 -62 -31 -102 -12 -41 -23 -72 -25 -70 -2 2 9 47 24 100 20 67 25 99 17 102 -6 2 -3 5 7 5 9 1 17 -1 17 -3z m-311 -10 c-2 -2 -26 -6 -54 -9 -34 -4 -42 -3 -25 3 25 8 87 13 79 6z m-122 -22 c-3 -3 -12 -4 -19 -1 -8 3 -5 6 6 6 11 1 17 -2 13 -5z m663 -4 c20 -6 21 -8 5 -8 -11 0 -31 4 -45 8 -20 6 -21 8 -5 8 11 0 31 -4 45 -8z m-745 -20 c-27 -12 -43 -12 -25 0 8 5 22 9 30 9 10 0 8 -3 -5 -9z m815 0 c18 -12 2 -12 -25 0 -13 6 -15 9 -5 9 8 0 22 -4 30 -9z m-890 -30 c-19 -11 -39 -19 -45 -19 -5 0 6 8 25 19 19 11 40 19 45 19 6 0 -6 -8 -25 -19z m965 5 c39 -17 21 -18 -25 0 -19 7 -28 14 -20 14 8 0 29 -6 45 -14z m95 -37 c10 -6 7 -7 -10 -2 -14 3 -32 11 -40 16 -10 6 -7 7 10 2 14 -3 32 -11 40 -16z m-1150 -12 c0 -2 -16 -13 -35 -25 -19 -11 -35 -18 -35 -16 0 5 61 45 68 45 1 0 2 -2 2 -4z m1195 -14 c-3 -3 -11 0 -18 7 -9 10 -8 11 6 5 10 -3 15 -9 12 -12z m-656 -66 c-2 -2 -31 -6 -64 -9 -39 -4 -50 -3 -30 2 31 9 102 14 94 7z m294 -3 c-13 -2 -33 -2 -45 0 -13 2 -3 4 22 4 25 0 35 -2 23 -4z m60 -10 c-7 -2 -19 -2 -25 0 -7 3 -2 5 12 5 14 0 19 -2 13 -5z m-490 -10 c-7 -2 -19 -2 -25 0 -7 3 -2 5 12 5 14 0 19 -2 13 -5z m582 -3 c25 -11 -1 -11 -35 0 -20 6 -21 8 -5 8 11 0 29 -3 40 -8z m-628 -6 c-3 -3 -12 -4 -19 -1 -8 3 -5 6 6 6 11 1 17 -2 13 -5z m-57 -14 c-8 -5 -19 -10 -25 -10 -5 0 -3 5 5 10 8 5 20 10 25 10 6 0 3 -5 -5 -10z m737 4 c-3 -3 -12 -4 -19 -1 -8 3 -5 6 6 6 11 1 17 -2 13 -5z m-807 -29 c-14 -8 -29 -14 -35 -14 -5 0 1 6 15 14 14 8 30 14 35 14 6 0 -1 -6 -15 -14z m-115 -53 c-18 -15 -85 -54 -85 -48 0 3 19 16 43 30 43 26 59 33 42 18z m-465 -65 c0 -1 -24 -25 -52 -52 l-53 -50 50 53 c46 48 55 57 55 49z m-200 -203 l-75 -76 35 6 c31 5 32 5 11 -4 -14 -6 -31 -8 -38 -6 -7 3 -13 1 -13 -4 0 -6 -6 -10 -12 -10 -7 0 25 38 72 85 47 47 87 85 90 85 2 0 -29 -34 -70 -76z m301 -4 c-13 -11 -31 -20 -40 -20 -9 0 0 8 19 19 46 24 50 24 21 1z m-96 -10 c-11 -5 -27 -9 -35 -9 -9 0 -8 4 5 9 11 5 27 9 35 9 9 0 8 -4 -5 -9z m-58 -16 c-3 -3 -12 -4 -19 -1 -8 3 -5 6 6 6 11 1 17 -2 13 -5z m-40 -10 c-3 -3 -12 -4 -19 -1 -8 3 -5 6 6 6 11 1 17 -2 13 -5z m-52 -14 c-11 -5 -27 -9 -35 -9 -9 0 -8 4 5 9 11 5 27 9 35 9 9 0 8 -4 -5 -9z m1170 -257 c-71 -14 -64 -2 -68 -131 l-3 -117 -2 122 c-2 134 -4 131 63 131 18 0 22 -2 10 -5z m262 1 c-3 -3 -12 -4 -19 -1 -8 3 -5 6 6 6 11 1 17 -2 13 -5z m-424 -141 c-1 -70 -6 -129 -10 -130 -5 -2 -7 51 -5 117 2 94 0 120 -10 121 -7 0 -4 4 7 9 11 5 20 9 20 9 0 1 -1 -56 -2 -126z m-144 73 c-10 -9 -109 -56 -109 -51 0 6 91 54 104 55 5 0 7 -2 5 -4z m439 -143 c-10 -2 -28 -2 -40 0 -13 2 -5 4 17 4 22 1 32 -1 23 -4z m-99 -7 c-2 -2 -22 -6 -44 -9 -28 -5 -34 -4 -20 3 19 8 73 14 64 6z m-239 -66 c-8 -5 -19 -10 -25 -10 -5 0 -3 5 5 10 8 5 20 10 25 10 6 0 3 -5 -5 -10z m-40 -14 c0 -2 -7 -7 -16 -10 -8 -3 -12 -2 -9 4 6 10 25 14 25 6z m-40 -20 c0 -2 -7 -7 -16 -10 -8 -3 -12 -2 -9 4 6 10 25 14 25 6z m-70 -41 c0 -2 -10 -9 -22 -15 -22 -11 -22 -10 -4 4 21 17 26 19 26 11z m-410 -28 c0 -1 -28 -29 -62 -62 l-63 -60 60 63 c55 58 65 67 65 59z m110 -201 c0 -2 -8 -10 -17 -17 -16 -13 -17 -12 -4 4 13 16 21 21 21 13z m-145 -36 c-11 -5 -27 -9 -35 -9 -9 0 -8 4 5 9 11 5 27 9 35 9 9 0 8 -4 -5 -9z m102 4 c-3 -3 -12 -4 -19 -1 -8 3 -5 6 6 6 11 1 17 -2 13 -5z m-182 -24 c-11 -5 -27 -9 -35 -9 -9 0 -8 4 5 9 11 5 27 9 35 9 9 0 8 -4 -5 -9z m-80 -20 c-11 -5 -27 -9 -35 -9 -9 0 -8 4 5 9 11 5 27 9 35 9 9 0 8 -4 -5 -9z m-98 -26 c-3 -3 -12 -4 -19 -1 -8 3 -5 6 6 6 11 1 17 -2 13 -5z"
       id="path4"
       style="fill:#f9f9f9" />
    <path
       d="M5365 6219 c-33 -5 -95 -18 -138 -29 -114 -28 -273 -102 -262 -120 3 -5 0 -12 -6 -16 -8 -5 -9 -3 -4 6 5 8 3 11 -6 8 -8 -3 -14 -10 -14 -16 0 -5 -4 -14 -9 -19 -5 -5 -6 -2 -1 6 5 9 3 12 -6 9 -8 -3 -13 -10 -12 -16 2 -6 -12 -21 -30 -32 l-32 -22 30 26 c17 14 26 26 22 26 -16 0 -67 -41 -62 -50 3 -4 -17 -24 -43 -45 l-47 -37 45 41 c25 23 41 41 35 41 -5 0 -35 -23 -65 -51 -30 -28 -46 -45 -35 -38 11 7 4 -4 -14 -24 -19 -20 -37 -37 -40 -37 -2 0 6 11 19 25 13 14 19 25 14 25 -11 0 -407 -381 -401 -386 3 -3 297 72 356 91 20 6 23 4 18 -9 -6 -14 -3 -16 16 -10 49 15 63 23 87 50 18 21 19 24 5 14 -11 -8 -7 0 9 18 17 18 32 32 34 32 3 0 -3 -9 -13 -20 -10 -11 -14 -20 -8 -20 13 0 55 45 48 52 -3 2 5 13 17 24 18 15 20 16 9 2 -19 -26 2 -22 25 4 12 13 13 18 4 13 -9 -5 -8 0 4 13 21 25 36 31 16 7 -7 -8 -8 -15 -2 -15 13 0 33 25 26 32 -3 3 0 9 7 14 8 5 10 3 4 -6 -5 -8 -3 -11 6 -8 8 3 14 10 14 16 0 6 7 17 15 24 12 11 12 11 1 -4 -19 -26 -6 -22 42 11 131 90 288 141 495 162 146 14 290 3 452 -36 95 -23 110 -25 155 -13 27 7 55 13 60 14 58 6 169 43 131 44 -11 0 -16 5 -13 14 12 30 -305 158 -493 198 -109 23 -366 33 -465 17z m243 -6 c-26 -2 -71 -2 -100 0 -29 2 -8 3 47 3 55 0 79 -1 53 -3z m-169 -7 c-2 -2 -35 -6 -74 -9 -42 -3 -58 -2 -40 3 30 8 122 13 114 6z m294 -3 c-13 -2 -35 -2 -50 0 -16 2 -5 4 22 4 28 0 40 -2 28 -4z m60 -10 c-7 -2 -19 -2 -25 0 -7 3 -2 5 12 5 14 0 19 -2 13 -5z m-563 -23 c-36 -10 -80 -23 -99 -29 -19 -6 -30 -7 -25 -2 5 4 36 16 69 25 33 10 65 19 70 21 6 2 19 3 30 3 11 0 -9 -8 -45 -18z m613 13 c-7 -2 -19 -2 -25 0 -7 3 -2 5 12 5 14 0 19 -2 13 -5z m44 -9 c-3 -3 -12 -4 -19 -1 -8 3 -5 6 6 6 11 1 17 -2 13 -5z m40 -10 c-3 -3 -12 -4 -19 -1 -8 3 -5 6 6 6 11 1 17 -2 13 -5z m70 -20 c-3 -3 -12 -4 -19 -1 -8 3 -5 6 6 6 11 1 17 -2 13 -5z m73 -26 c10 -6 7 -7 -10 -2 -14 3 -32 11 -40 16 -10 6 -7 7 10 2 14 -3 32 -11 40 -16z m-981 8 c-10 -9 -89 -46 -89 -41 0 6 72 44 84 45 5 0 7 -2 5 -4z m1090 -52 l78 -36 -21 -39 c-11 -21 -28 -39 -36 -38 -11 0 -11 2 -2 6 13 5 46 62 40 69 -2 2 -38 19 -79 38 -40 19 -70 35 -66 35 4 1 43 -15 86 -35z m-466 -71 c-29 -2 -78 -2 -110 0 -32 2 -8 3 52 3 61 0 87 -1 58 -3z m-254 -18 c-42 -7 -104 -20 -138 -29 -70 -18 -88 -20 -52 -5 46 18 188 46 236 46 17 0 -4 -5 -46 -12z m369 8 c-10 -2 -28 -2 -40 0 -13 2 -5 4 17 4 22 1 32 -1 23 -4z m70 -10 c-10 -2 -26 -2 -35 0 -10 3 -2 5 17 5 19 0 27 -2 18 -5z m49 -9 c-3 -3 -12 -4 -19 -1 -8 3 -5 6 6 6 11 1 17 -2 13 -5z m68 -14 c25 -11 -1 -11 -35 0 -20 6 -21 8 -5 8 11 0 29 -3 40 -8z m52 -16 c-3 -3 -12 -4 -19 -1 -8 3 -5 6 6 6 11 1 17 -2 13 -5z m63 -4 c-34 -11 -60 -11 -35 0 11 5 29 8 40 8 16 0 15 -2 -5 -8z m-960 -34 c0 -2 -7 -7 -16 -10 -8 -3 -12 -2 -9 4 6 10 25 14 25 6z m-50 -26 c-35 -24 -54 -31 -30 -11 14 11 30 21 35 21 6 0 3 -5 -5 -10z m-60 -35 c0 -2 -10 -9 -22 -15 -22 -11 -22 -10 -4 4 21 17 26 19 26 11z m-564 -184 c-84 -84 -124 -130 -115 -134 10 -4 9 -6 -3 -6 -9 -1 -23 -4 -31 -7 -8 -3 49 58 127 135 77 78 143 141 146 141 3 0 -53 -58 -124 -129z m174 -61 c-8 -5 -22 -9 -30 -9 -10 0 -8 3 5 9 27 12 43 12 25 0z m-53 -16 c-3 -3 -12 -4 -19 -1 -8 3 -5 6 6 6 11 1 17 -2 13 -5z m-52 -14 c-11 -5 -29 -8 -40 -8 -16 0 -15 2 5 8 34 11 60 11 35 0z m-115 -30 c-34 -11 -60 -11 -35 0 11 5 29 8 40 8 16 0 15 -2 -5 -8z"
       id="path6"
       style="fill:#f9f9f9" />
    <path
       d="M4432 5491 l-182 -47 -70 -69 c-38 -38 -67 -72 -64 -77 3 -5 1 -7 -3 -6 -13 4 -244 -203 -238 -212 3 -4 -3 -14 -13 -21 -15 -13 -16 -12 -3 4 7 9 9 17 4 17 -13 0 -45 -35 -38 -42 3 -3 -3 -11 -12 -19 -16 -13 -17 -12 -4 4 7 9 9 17 4 17 -13 0 -45 -35 -38 -42 3 -3 -3 -11 -12 -19 -16 -13 -17 -12 -4 4 7 9 9 17 3 17 -11 0 -30 -21 -30 -33 0 -5 -4 -12 -8 -15 -4 -4 -4 -1 1 7 5 9 3 12 -6 9 -8 -3 -13 -10 -12 -16 1 -5 -5 -16 -15 -24 -15 -12 -16 -11 -3 5 7 9 9 17 3 17 -11 0 -39 -31 -34 -37 2 -3 0 -8 -4 -11 -4 -4 -4 -1 1 7 5 9 3 12 -6 9 -8 -3 -14 -10 -14 -18 0 -7 -11 -19 -25 -28 l-25 -14 25 21 c41 34 18 24 -80 -33 -315 -187 -631 -233 -995 -146 -66 15 -218 60 -337 99 l-217 72 -123 -31 c-114 -29 -178 -52 -98 -35 19 4 32 4 28 0 -4 -4 -33 -9 -65 -11 -32 -2 -76 -7 -98 -12 l-40 -8 60 -13 c148 -31 278 -68 549 -157 160 -53 345 -108 411 -124 282 -67 529 -55 771 39 104 41 259 125 259 141 0 7 11 19 25 28 l25 14 -25 -21 c-14 -11 -20 -21 -15 -20 15 0 50 28 50 41 0 6 11 17 25 26 l25 14 -25 -21 c-32 -27 -17 -27 21 0 16 11 27 24 24 29 -3 5 0 12 6 16 8 5 9 3 4 -6 -5 -8 -3 -11 6 -8 8 3 13 10 12 16 -1 5 5 16 15 24 15 12 16 11 3 -4 -20 -26 2 -22 25 4 12 14 14 18 4 13 -8 -4 -4 4 9 18 14 15 27 27 29 27 3 0 -3 -9 -13 -20 -10 -11 -14 -20 -8 -20 13 0 45 35 38 42 -3 3 5 13 17 24 l23 19 -19 -22 c-11 -13 -15 -23 -9 -23 12 0 55 45 48 51 -3 3 10 19 28 35 31 28 31 28 8 2 -51 -58 -4 -24 100 73 60 56 106 106 102 112 -3 5 -2 7 4 4 13 -8 56 37 46 47 -5 4 -3 6 3 4 6 -1 95 79 198 180 103 100 184 182 179 181 -4 0 -90 -22 -191 -48z m158 26 c0 -1 -75 -76 -167 -167 l-168 -165 155 158 c85 86 148 157 140 158 -8 1 -4 5 10 9 14 4 26 8 28 9 1 1 2 0 2 -2z m-115 -37 c-11 -5 -27 -9 -35 -9 -9 0 -8 4 5 9 11 5 27 9 35 9 9 0 8 -4 -5 -9z m-75 -20 c-34 -11 -60 -11 -35 0 11 5 29 8 40 8 16 0 15 -2 -5 -8z m-80 -20 c-34 -11 -60 -11 -35 0 11 5 29 8 40 8 16 0 15 -2 -5 -8z m-60 -14 c0 -2 -8 -10 -17 -17 -16 -13 -17 -12 -4 4 13 16 21 21 21 13z m-40 -39 c0 -2 -17 -19 -37 -38 l-38 -34 34 38 c33 34 41 42 41 34z m-120 -110 c0 -1 -26 -27 -57 -57 l-58 -55 55 58 c50 53 60 62 60 54z m-120 -110 c0 -2 -17 -19 -37 -38 l-38 -34 34 38 c33 34 41 42 41 34z m170 -80 c0 -1 -26 -27 -57 -57 l-58 -55 55 58 c50 53 60 62 60 54z m-570 -232 c0 -2 -10 -9 -22 -15 -22 -11 -22 -10 -4 4 21 17 26 19 26 11z m-1645 -15 c-11 -5 -27 -9 -35 -9 -9 0 -8 4 5 9 11 5 27 9 35 9 9 0 8 -4 -5 -9z m-80 -20 c-11 -5 -27 -9 -35 -9 -9 0 -8 4 5 9 11 5 27 9 35 9 9 0 8 -4 -5 -9z m1670 0 c-3 -5 -12 -10 -18 -10 -7 0 -6 4 3 10 19 12 23 12 15 0z m-35 -15 c0 -2 -13 -11 -30 -20 -38 -19 -40 -11 -2 9 31 17 32 18 32 11z m-1795 -25 c-11 -5 -27 -9 -35 -9 -9 0 -8 4 5 9 11 5 27 9 35 9 9 0 8 -4 -5 -9z m50 -20 c25 -11 -1 -11 -35 0 -20 6 -21 8 -5 8 11 0 29 -3 40 -8z m1665 0 c-8 -5 -19 -10 -25 -10 -5 0 -3 5 5 10 8 5 20 10 25 10 6 0 3 -5 -5 -10z m-1585 -20 c13 -5 14 -9 5 -9 -8 0 -24 4 -35 9 -13 5 -14 9 -5 9 8 0 24 -4 35 -9z m515 0 c18 -12 2 -12 -25 0 -13 6 -15 9 -5 9 8 0 22 -4 30 -9z m-440 -20 c11 -8 7 -9 -15 -4 -37 8 -45 14 -19 14 10 0 26 -5 34 -10z m505 0 c13 -6 15 -9 5 -9 -8 0 -22 4 -30 9 -18 12 -2 12 25 0z m915 0 c-8 -5 -19 -10 -25 -10 -5 0 -3 5 5 10 8 5 20 10 25 10 6 0 3 -5 -5 -10z m-1355 -20 c13 -6 15 -9 5 -9 -8 0 -22 4 -30 9 -18 12 -2 12 25 0z m492 4 c-3 -3 -12 -4 -19 -1 -8 3 -5 6 6 6 11 1 17 -2 13 -5z m803 -4 c-8 -5 -19 -10 -25 -10 -5 0 -3 5 5 10 8 5 20 10 25 10 6 0 3 -5 -5 -10z m-763 -6 c-3 -3 -12 -4 -19 -1 -8 3 -5 6 6 6 11 1 17 -2 13 -5z m-467 -14 c18 -12 2 -12 -25 0 -13 6 -15 9 -5 9 8 0 22 -4 30 -9z m507 4 c-3 -3 -12 -4 -19 -1 -8 3 -5 6 6 6 11 1 17 -2 13 -5z m663 -4 c-8 -5 -24 -9 -35 -9 -16 1 -16 2 5 9 35 11 48 11 30 0z m-1110 -20 c18 -12 2 -12 -25 0 -13 6 -15 9 -5 9 8 0 22 -4 30 -9z m575 0 c27 -7 27 -8 5 -8 -14 0 -36 4 -50 8 -20 6 -21 8 -5 8 11 0 34 -4 50 -8z m455 0 c-14 -4 -36 -8 -50 -8 -22 0 -22 1 5 8 17 4 39 8 50 8 16 0 15 -2 -5 -8z m-970 -20 c18 -12 2 -12 -25 0 -13 6 -15 9 -5 9 8 0 22 -4 30 -9z m633 3 c-13 -2 -33 -2 -45 0 -13 2 -3 4 22 4 25 0 35 -2 23 -4z m202 -3 c-27 -5 -79 -8 -115 -7 l-65 1 75 6 c41 4 93 7 115 7 37 0 37 0 -10 -7z m615 5 c0 -6 -125 -75 -136 -75 -5 0 23 18 61 40 76 43 75 42 75 35z m-1390 -25 c18 -12 2 -12 -25 0 -13 6 -15 9 -5 9 8 0 22 -4 30 -9z m60 -20 c18 -12 2 -12 -25 0 -13 6 -15 9 -5 9 8 0 22 -4 30 -9z m60 -20 c18 -12 2 -12 -25 0 -13 6 -15 9 -5 9 8 0 22 -4 30 -9z m60 -20 c18 -12 2 -12 -25 0 -13 6 -15 9 -5 9 8 0 22 -4 30 -9z m1040 -5 c-14 -8 -29 -14 -35 -14 -5 0 1 6 15 14 14 8 30 14 35 14 6 0 -1 -6 -15 -14z m-975 -15 c13 -5 14 -9 5 -9 -8 0 -24 4 -35 9 -13 5 -14 9 -5 9 8 0 24 -4 35 -9z m65 -20 c18 -12 2 -12 -25 0 -13 6 -15 9 -5 9 8 0 22 -4 30 -9z m825 0 c-27 -12 -43 -12 -25 0 8 5 22 9 30 9 10 0 8 -3 -5 -9z m-745 -20 c11 -8 7 -9 -15 -4 -37 8 -45 14 -19 14 10 0 26 -5 34 -10z m685 0 c-27 -12 -43 -12 -25 0 8 5 22 9 30 9 10 0 8 -3 -5 -9z m-622 -17 c-7 -2 -19 -2 -25 0 -7 3 -2 5 12 5 14 0 19 -2 13 -5z m547 -3 c-34 -11 -60 -11 -35 0 11 5 29 8 40 8 16 0 15 -2 -5 -8z m-503 -6 c-3 -3 -12 -4 -19 -1 -8 3 -5 6 6 6 11 1 17 -2 13 -5z m202 -20 c8 -7 -94 -3 -134 6 -28 6 -14 6 45 3 47 -3 87 -7 89 -9z m191 5 c-25 -4 -67 -7 -95 -7 l-50 1 60 7 c33 4 76 7 95 7 31 0 30 0 -10 -8z"
       id="path8"
       style="fill:#f9f9f9" />
    <path
       d="M1090 5013 c-188 -7 -406 -48 -588 -108 -112 -38 -307 -134 -307 -153 0 -5 -4 -14 -9 -19 -5 -5 -6 -2 -1 6 5 9 3 12 -6 9 -8 -3 -14 -10 -14 -16 0 -5 -4 -14 -9 -19 -5 -5 -6 -3 -2 5 11 18 -9 15 -25 -5 -12 -15 -12 -16 1 -8 9 5 8 0 -4 -13 -21 -25 -36 -31 -16 -7 7 8 8 15 2 15 -12 0 -34 -25 -27 -32 3 -3 -5 -13 -17 -24 l-23 -19 19 23 c28 33 4 27 -29 -8 l-28 -29 23 -111 c23 -111 24 -111 49 -105 43 10 96 40 94 52 -1 6 5 17 15 25 15 12 16 11 3 -4 -7 -10 -9 -18 -3 -18 12 0 31 22 29 34 -1 5 9 15 23 24 l25 14 -25 -21 c-32 -27 -21 -27 24 0 20 12 34 25 31 29 -3 5 0 12 6 16 8 4 9 3 5 -4 -10 -17 -9 -17 100 37 152 76 319 127 544 167 70 13 160 17 340 19 150 1 253 6 265 12 11 6 85 27 165 47 80 20 163 42 185 48 l40 11 -118 33 c-266 75 -509 107 -737 97z m178 -20 c-49 -2 -127 -2 -175 0 -49 1 -9 3 87 3 96 0 136 -2 88 -3z m-320 -10 c-10 -2 -26 -2 -35 0 -10 3 -2 5 17 5 19 0 27 -2 18 -5z m527 -2 c53 -11 5 -12 -55 -2 -34 6 -37 9 -15 9 17 1 48 -3 70 -7z m-592 -8 c-7 -2 -21 -2 -30 0 -10 3 -4 5 12 5 17 0 24 -2 18 -5z m-76 -9 c-3 -3 -12 -4 -19 -1 -8 3 -5 6 6 6 11 1 17 -2 13 -5z m788 -4 c14 -7 8 -8 -20 -3 -22 3 -42 7 -44 9 -9 8 45 2 64 -6z m-832 -7 c-7 -2 -19 -2 -25 0 -7 3 -2 5 12 5 14 0 19 -2 13 -5z m-63 -13 c-34 -11 -60 -11 -35 0 11 5 29 8 40 8 16 0 15 -2 -5 -8z m990 0 c20 -6 21 -8 5 -8 -11 0 -31 4 -45 8 -20 6 -21 8 -5 8 11 0 31 -4 45 -8z m-1075 -20 c-11 -5 -27 -9 -35 -9 -9 0 -8 4 5 9 11 5 27 9 35 9 9 0 8 -4 -5 -9z m1150 0 c13 -5 14 -9 5 -9 -8 0 -24 4 -35 9 -13 5 -14 9 -5 9 8 0 24 -4 35 -9z m-1220 -20 c-27 -12 -43 -12 -25 0 8 5 22 9 30 9 10 0 8 -3 -5 -9z m1300 0 c13 -5 14 -9 5 -9 -8 0 -24 4 -35 9 -13 5 -14 9 -5 9 8 0 24 -4 35 -9z m45 -20 c-8 -5 -22 -10 -30 -10 -13 0 -13 1 0 10 8 5 22 10 30 10 13 0 13 -1 0 -10z m-1460 -20 c-8 -5 -19 -10 -25 -10 -5 0 -3 5 5 10 8 5 20 10 25 10 6 0 3 -5 -5 -10z m1385 0 c-11 -5 -27 -9 -35 -9 -9 0 -8 4 5 9 11 5 27 9 35 9 9 0 8 -4 -5 -9z m-235 -60 c-8 -5 -19 -10 -25 -10 -5 0 -3 5 5 10 8 5 20 10 25 10 6 0 3 -5 -5 -10z m-1310 -15 c0 -2 -10 -9 -22 -15 -22 -11 -22 -10 -4 4 21 17 26 19 26 11z m1083 -2 c-45 -2 -122 -2 -170 0 -48 1 -11 3 82 3 94 0 133 -2 88 -3z m184 1 c-3 -3 -12 -4 -19 -1 -8 3 -5 6 6 6 11 1 17 -2 13 -5z m-459 -11 c-10 -2 -26 -2 -35 0 -10 3 -2 5 17 5 19 0 27 -2 18 -5z m410 0 c-10 -2 -26 -2 -35 0 -10 3 -2 5 17 5 19 0 27 -2 18 -5z m-499 -7 c-2 -2 -26 -6 -54 -9 -34 -4 -42 -3 -25 3 25 8 87 13 79 6z m-139 -26 c-14 -4 -34 -8 -45 -8 -16 0 -15 2 5 8 14 4 34 8 45 8 16 0 15 -2 -5 -8z m-113 -26 c-3 -3 -12 -4 -19 -1 -8 3 -5 6 6 6 11 1 17 -2 13 -5z m-52 -14 c-27 -12 -43 -12 -25 0 8 5 22 9 30 9 10 0 8 -3 -5 -9z m-65 -20 c-8 -5 -19 -10 -25 -10 -5 0 -3 5 5 10 8 5 20 10 25 10 6 0 3 -5 -5 -10z m-60 -20 c-8 -5 -19 -10 -25 -10 -5 0 -3 5 5 10 8 5 20 10 25 10 6 0 3 -5 -5 -10z m-50 -20 c-8 -5 -19 -10 -25 -10 -5 0 -3 5 5 10 8 5 20 10 25 10 6 0 3 -5 -5 -10z m-474 -58 c2 -46 2 -46 -8 -13 -8 28 -6 61 4 61 2 0 4 -21 4 -48z m433 44 c-10 -9 -149 -76 -149 -71 0 6 131 74 144 75 5 0 7 -2 5 -4z m-411 -161 c0 -16 -2 -15 -8 5 -11 34 -11 60 0 35 5 -11 8 -29 8 -40z m92 -30 c-7 -8 -20 -15 -29 -15 -11 0 -8 5 9 14 33 19 35 19 20 1z m-50 -20 c0 -1 -9 -5 -20 -8 -12 -3 -20 0 -20 8 0 8 8 11 20 8 11 -3 20 -7 20 -8z"
       id="path10"
       style="fill:#f9f9f9" />
    <path
       d="M4683 4582 c-136 -35 -188 -53 -207 -71 -14 -13 -23 -29 -19 -35 3 -6 2 -8 -2 -3 -11 9 -66 -43 -59 -55 3 -5 1 -7 -5 -6 -12 4 -252 -213 -246 -222 3 -4 -5 -16 -18 -26 -18 -16 -19 -16 -8 -1 7 9 9 17 4 17 -13 0 -45 -35 -38 -42 3 -3 -3 -11 -12 -19 -16 -13 -17 -12 -4 4 7 9 9 17 4 17 -13 0 -45 -35 -38 -42 3 -3 -3 -11 -12 -19 -16 -13 -17 -12 -4 4 7 9 9 17 3 17 -12 0 -34 -25 -27 -32 3 -3 -3 -11 -12 -19 -16 -13 -17 -12 -4 4 7 9 9 17 3 17 -11 0 -30 -21 -30 -33 0 -5 -4 -12 -8 -15 -4 -4 -4 -1 1 7 5 9 3 12 -6 9 -8 -3 -13 -10 -12 -16 1 -5 -5 -16 -15 -24 -15 -12 -16 -11 -3 5 7 9 9 17 3 17 -11 0 -39 -31 -34 -37 2 -3 0 -8 -4 -11 -4 -4 -4 -1 1 7 5 9 3 12 -6 9 -8 -3 -14 -10 -14 -16 0 -5 -4 -14 -9 -19 -5 -5 -6 -3 -2 5 11 19 2 15 -91 -38 -230 -132 -477 -189 -728 -169 -168 13 -299 45 -627 153 l-167 55 -191 -48 c-105 -26 -193 -51 -197 -55 -3 -3 7 -6 23 -6 54 0 299 -68 575 -159 431 -142 537 -165 759 -164 139 1 167 4 271 31 145 37 397 151 384 172 -3 5 0 12 6 16 8 5 9 3 4 -6 -13 -20 16 -7 85 40 33 23 58 45 55 49 -2 5 3 15 13 22 15 13 16 12 3 -3 -7 -10 -9 -18 -3 -18 12 0 34 25 27 32 -3 3 3 11 12 19 16 13 17 12 4 -3 -20 -26 2 -22 25 4 12 13 13 18 4 13 -9 -5 -8 0 4 13 21 25 36 31 16 7 -20 -24 5 -17 26 7 12 14 14 18 4 13 -8 -4 -4 4 9 18 14 15 27 27 29 27 3 0 -3 -9 -13 -20 -10 -11 -14 -20 -8 -20 5 0 22 14 39 32 16 18 20 26 9 18 -11 -8 -2 5 20 28 21 23 41 42 44 42 3 0 -8 -14 -25 -31 -16 -18 -24 -30 -17 -28 23 7 333 311 327 320 -3 5 0 8 8 7 7 -2 12 3 10 9 -1 7 2 12 7 10 5 -1 74 62 153 141 80 78 142 142 139 141 -3 0 -88 -22 -188 -47z m157 25 c0 -2 -10 -12 -22 -23 -12 -10 -18 -13 -14 -6 4 7 2 12 -6 13 -7 1 -2 5 12 9 14 4 26 8 28 9 1 1 2 -1 2 -2z m-75 -27 c-11 -5 -27 -9 -35 -9 -9 0 -8 4 5 9 11 5 27 9 35 9 9 0 8 -4 -5 -9z m-80 -20 c-11 -5 -27 -9 -35 -9 -9 0 -8 4 5 9 11 5 27 9 35 9 9 0 8 -4 -5 -9z m105 -3 c0 -2 -10 -12 -22 -23 l-23 -19 19 23 c18 21 26 27 26 19z m-185 -17 c-11 -5 -27 -9 -35 -9 -9 0 -8 4 5 9 11 5 27 9 35 9 9 0 8 -4 -5 -9z m-80 -20 c-27 -12 -43 -12 -25 0 8 5 22 9 30 9 10 0 8 -3 -5 -9z m-85 -64 c0 -2 -8 -10 -17 -17 -16 -13 -17 -12 -4 4 13 16 21 21 21 13z m-60 -59 c0 -1 -28 -29 -62 -62 l-63 -60 60 63 c55 58 65 67 65 59z m-130 -120 c0 -2 -19 -21 -42 -42 l-43 -40 40 43 c36 39 45 47 45 39z m160 -90 c0 -1 -24 -25 -52 -52 l-53 -50 50 53 c46 48 55 57 55 49z m-2163 -245 c8 -5 -1 -8 -22 -8 -21 0 -30 3 -22 8 6 4 17 8 22 8 6 0 16 -4 22 -8z m1563 -12 c-14 -11 -29 -20 -35 -20 -5 0 4 9 20 20 38 25 48 25 15 0z m-1665 -10 c-27 -12 -43 -12 -25 0 8 5 22 9 30 9 10 0 8 -3 -5 -9z m170 0 c13 -5 14 -9 5 -9 -8 0 -24 4 -35 9 -13 5 -14 9 -5 9 8 0 24 -4 35 -9z m60 -20 c13 -6 15 -9 5 -9 -8 0 -22 4 -30 9 -18 12 -2 12 25 0z m1385 5 c0 -2 -22 -16 -50 -30 -27 -14 -50 -23 -50 -20 0 2 21 16 48 29 53 28 52 28 52 21z m-1325 -25 c13 -6 15 -9 5 -9 -8 0 -22 4 -30 9 -18 12 -2 12 25 0z m-500 -20 c19 -8 19 -9 -2 -9 -12 -1 -25 4 -28 9 -7 12 2 12 30 0z m560 0 c13 -6 15 -9 5 -9 -8 0 -22 4 -30 9 -18 12 -2 12 25 0z m-475 -20 c20 -6 21 -8 5 -8 -11 0 -29 3 -40 8 -25 11 1 11 35 0z m535 0 c13 -6 15 -9 5 -9 -8 0 -22 4 -30 9 -18 12 -2 12 25 0z m1085 0 c-8 -5 -19 -10 -25 -10 -5 0 -3 5 5 10 8 5 20 10 25 10 6 0 3 -5 -5 -10z m-1545 -20 c13 -5 14 -9 5 -9 -8 0 -24 4 -35 9 -13 5 -14 9 -5 9 8 0 24 -4 35 -9z m525 0 c18 -12 2 -12 -25 0 -13 6 -15 9 -5 9 8 0 22 -4 30 -9z m975 0 c-3 -5 -14 -10 -23 -9 -14 0 -13 2 3 9 27 11 27 11 20 0z m-910 -20 c13 -6 15 -9 5 -9 -8 0 -22 4 -30 9 -18 12 -2 12 25 0z m855 0 c-8 -5 -19 -10 -25 -10 -5 0 -3 5 5 10 8 5 20 10 25 10 6 0 3 -5 -5 -10z m-1305 -20 c13 -6 15 -9 5 -9 -8 0 -22 4 -30 9 -18 12 -2 12 25 0z m530 0 c13 -5 14 -9 5 -9 -8 0 -24 4 -35 9 -13 5 -14 9 -5 9 8 0 24 -4 35 -9z m720 0 c-27 -12 -43 -12 -25 0 8 5 22 9 30 9 10 0 8 -3 -5 -9z m-1185 -20 c18 -12 2 -12 -25 0 -13 6 -15 9 -5 9 8 0 22 -4 30 -9z m550 0 c20 -6 21 -8 5 -8 -11 0 -29 3 -40 8 -25 11 1 11 35 0z m565 0 c-11 -5 -27 -9 -35 -9 -9 0 -8 4 5 9 11 5 27 9 35 9 9 0 8 -4 -5 -9z m-1055 -20 c18 -12 2 -12 -25 0 -13 6 -15 9 -5 9 8 0 22 -4 30 -9z m573 3 c-7 -2 -21 -2 -30 0 -10 3 -4 5 12 5 17 0 24 -2 18 -5z m392 -3 c-16 -4 -46 -8 -65 -7 l-35 0 40 7 c22 4 51 7 65 7 22 1 22 0 -5 -7z m-317 -7 c-10 -2 -28 -2 -40 0 -13 2 -5 4 17 4 22 1 32 -1 23 -4z m-588 -13 c18 -12 2 -12 -25 0 -13 6 -15 9 -5 9 8 0 22 -4 30 -9z m723 3 c-7 -2 -21 -2 -30 0 -10 3 -4 5 12 5 17 0 24 -2 18 -5z m677 -8 c0 -6 -137 -75 -147 -75 -6 1 134 77 145 80 1 0 2 -2 2 -5z m-1340 -15 c18 -12 2 -12 -25 0 -13 6 -15 9 -5 9 8 0 22 -4 30 -9z m60 -20 c18 -12 2 -12 -25 0 -13 6 -15 9 -5 9 8 0 22 -4 30 -9z m60 -20 c18 -12 2 -12 -25 0 -13 6 -15 9 -5 9 8 0 22 -4 30 -9z m60 -20 c18 -12 2 -12 -25 0 -13 6 -15 9 -5 9 8 0 22 -4 30 -9z m65 -20 c13 -6 15 -9 5 -9 -8 0 -22 4 -30 9 -18 12 -2 12 25 0z m905 0 c-8 -5 -19 -10 -25 -10 -5 0 -3 5 5 10 8 5 20 10 25 10 6 0 3 -5 -5 -10z m-835 -20 c13 -5 14 -9 5 -9 -8 0 -24 4 -35 9 -13 5 -14 9 -5 9 8 0 24 -4 35 -9z m780 0 c-11 -5 -27 -9 -35 -9 -9 0 -8 4 5 9 11 5 27 9 35 9 9 0 8 -4 -5 -9z m-695 -20 c20 -6 21 -8 5 -8 -11 0 -29 3 -40 8 -25 11 1 11 35 0z m630 0 c-8 -5 -24 -9 -35 -9 -16 1 -16 2 5 9 35 11 48 11 30 0z m-525 -20 c27 -7 27 -8 5 -8 -14 0 -36 4 -50 8 -20 6 -21 8 -5 8 11 0 34 -4 50 -8z m445 0 c-14 -4 -34 -8 -45 -8 -16 0 -15 2 5 8 14 4 34 8 45 8 16 0 15 -2 -5 -8z m-255 -20 c29 -6 17 -7 -40 -3 -44 3 -82 7 -84 9 -8 7 84 3 124 -6z m133 3 c-16 -2 -40 -2 -55 0 -16 2 -3 4 27 4 30 0 43 -2 28 -4z"
       id="path12"
       style="fill:#f9f9f9" />
    <path
       d="M1319 4098 c-219 -11 -425 -52 -617 -123 -112 -41 -257 -116 -257 -132 0 -6 -4 -15 -9 -20 -5 -5 -6 -3 -2 5 10 17 -5 15 -32 -4 -12 -8 -20 -19 -17 -24 3 -4 -12 -20 -33 -35 l-37 -26 35 30 c19 17 30 31 25 31 -6 0 -28 -16 -50 -36 -22 -19 -33 -32 -25 -28 8 4 2 -7 -14 -24 -17 -18 -32 -32 -35 -32 -2 0 6 11 19 25 34 36 12 31 -26 -6 l-31 -30 19 -87 c29 -132 23 -123 63 -106 19 8 42 14 52 14 24 0 95 49 88 60 -3 5 0 12 6 16 8 5 9 3 4 -6 -5 -8 -3 -11 6 -8 8 3 14 10 14 16 0 5 4 14 9 19 5 5 6 2 1 -6 -5 -9 -3 -12 6 -9 8 3 14 10 14 16 0 5 4 14 9 19 5 5 6 3 2 -4 -10 -18 -4 -16 45 12 24 13 44 30 44 36 0 7 7 14 15 16 13 4 13 3 0 -7 -20 -16 -11 -13 112 39 126 54 302 104 463 132 108 19 169 23 365 24 145 0 243 5 255 12 11 5 53 18 93 28 53 13 70 20 60 27 -9 7 -7 8 7 3 21 -7 215 35 215 46 0 4 -19 12 -42 18 -24 6 -77 20 -118 31 -239 66 -465 91 -701 78z m120 -12 c-2 -2 -62 -5 -134 -8 -71 -3 -107 -2 -80 2 53 7 221 12 214 6z m119 -3 c-21 -2 -55 -2 -75 0 -21 2 -4 4 37 4 41 0 58 -2 38 -4z m105 -10 c-13 -2 -33 -2 -45 0 -13 2 -3 4 22 4 25 0 35 -2 23 -4z m-520 -10 c-7 -2 -21 -2 -30 0 -10 3 -4 5 12 5 17 0 24 -2 18 -5z m642 -3 c27 -7 27 -8 5 -8 -14 0 -38 4 -55 8 -27 7 -27 8 -5 8 14 0 39 -4 55 -8z m-702 -7 c-7 -2 -19 -2 -25 0 -7 3 -2 5 12 5 14 0 19 -2 13 -5z m-73 -13 c-14 -4 -34 -8 -45 -8 -16 0 -15 2 5 8 14 4 34 8 45 8 16 0 15 -2 -5 -8z m880 0 c20 -6 21 -8 5 -8 -11 0 -31 4 -45 8 -20 6 -21 8 -5 8 11 0 31 -4 45 -8z m-975 -20 c-11 -5 -27 -9 -35 -9 -9 0 -8 4 5 9 11 5 27 9 35 9 9 0 8 -4 -5 -9z m1060 0 c13 -5 14 -9 5 -9 -8 0 -24 4 -35 9 -13 5 -14 9 -5 9 8 0 24 -4 35 -9z m-1135 -20 c-8 -5 -24 -9 -35 -9 -16 1 -16 2 5 9 35 11 48 11 30 0z m1205 0 c13 -6 15 -9 5 -9 -8 0 -22 4 -30 9 -18 12 -2 12 25 0z m-1275 -20 c-8 -5 -19 -10 -25 -10 -5 0 -3 5 5 10 8 5 20 10 25 10 6 0 3 -5 -5 -10z m1344 4 c21 -8 21 -24 0 -24 -8 0 -13 4 -9 9 3 5 -3 12 -12 14 -10 3 -13 5 -6 6 6 0 18 -2 27 -5z m-1399 -24 c-27 -12 -43 -12 -25 0 8 5 22 9 30 9 10 0 8 -3 -5 -9z m-75 -30 c-19 -11 -39 -19 -45 -19 -5 0 6 8 25 19 19 11 40 19 45 19 6 0 -6 -8 -25 -19z m1390 10 c-8 -5 -22 -9 -30 -9 -10 0 -8 3 5 9 27 12 43 12 25 0z m-93 -26 c-3 -3 -12 -4 -19 -1 -8 3 -5 6 6 6 11 1 17 -2 13 -5z m-1362 -14 c-3 -5 -12 -10 -18 -10 -7 0 -6 4 3 10 19 12 23 12 15 0z m-40 -20 c-3 -5 -12 -10 -18 -10 -7 0 -6 4 3 10 19 12 23 12 15 0z m1265 0 c-8 -5 -19 -10 -25 -10 -5 0 -3 5 5 10 8 5 20 10 25 10 6 0 3 -5 -5 -10z m-207 -7 c-34 -2 -93 -2 -130 0 -37 2 -9 3 62 3 72 0 102 -1 68 -3z m-1093 -8 c0 -2 -10 -9 -22 -15 -22 -11 -22 -10 -4 4 21 17 26 19 26 11z m849 1 c-2 -2 -35 -6 -74 -9 -45 -3 -58 -3 -35 2 37 9 116 14 109 7z m394 -3 c-7 -2 -19 -2 -25 0 -7 3 -2 5 12 5 14 0 19 -2 13 -5z m-560 -20 c-7 -2 -19 -2 -25 0 -7 3 -2 5 12 5 14 0 19 -2 13 -5z m-50 -10 c-7 -2 -19 -2 -25 0 -7 3 -2 5 12 5 14 0 19 -2 13 -5z m-56 -9 c-3 -3 -12 -4 -19 -1 -8 3 -5 6 6 6 11 1 17 -2 13 -5z m-40 -10 c-3 -3 -12 -4 -19 -1 -8 3 -5 6 6 6 11 1 17 -2 13 -5z m-40 -10 c-3 -3 -12 -4 -19 -1 -8 3 -5 6 6 6 11 1 17 -2 13 -5z m-92 -24 c-27 -12 -43 -12 -25 0 8 5 22 9 30 9 10 0 8 -3 -5 -9z m-60 -20 c-27 -12 -43 -12 -25 0 8 5 22 9 30 9 10 0 8 -3 -5 -9z m-55 -20 c-8 -5 -19 -10 -25 -10 -5 0 -3 5 5 10 8 5 20 10 25 10 6 0 3 -5 -5 -10z m-50 -20 c-8 -5 -19 -10 -25 -10 -5 0 -3 5 5 10 8 5 20 10 25 10 6 0 3 -5 -5 -10z m-40 -14 c0 -2 -7 -7 -16 -10 -8 -3 -12 -2 -9 4 6 10 25 14 25 6z m-40 -20 c0 -2 -7 -7 -16 -10 -8 -3 -12 -2 -9 4 6 10 25 14 25 6z m-423 -48 c-3 -8 -6 -5 -6 6 -1 11 2 17 5 13 3 -3 4 -12 1 -19z m323 -3 c0 -2 -10 -9 -22 -15 -22 -11 -22 -10 -4 4 21 17 26 19 26 11z m-313 -47 c-3 -8 -6 -5 -6 6 -1 11 2 17 5 13 3 -3 4 -12 1 -19z m10 -40 c-3 -8 -6 -5 -6 6 -1 11 2 17 5 13 3 -3 4 -12 1 -19z m148 -18 c-10 -11 -22 -20 -28 -20 -5 0 1 9 14 20 31 25 37 25 14 0z m-132 -30 c3 -11 1 -18 -4 -14 -5 3 -9 12 -9 20 0 20 7 17 13 -6z m62 0 c-11 -5 -27 -9 -35 -9 -9 0 -8 4 5 9 11 5 27 9 35 9 9 0 8 -4 -5 -9z"
       id="path14"
       style="fill:#f9f9f9" />
    <path
       d="M4934 3671 l-181 -47 -136 -128 c-75 -71 -134 -132 -132 -136 2 -4 -10 -20 -28 -36 -31 -29 -32 -29 -8 -1 39 44 9 31 -34 -15 -22 -23 -31 -36 -20 -28 15 11 14 8 -4 -13 -25 -28 -43 -38 -21 -12 20 24 -5 17 -26 -7 -12 -13 -13 -18 -4 -13 9 5 8 0 -4 -13 -21 -25 -36 -31 -16 -7 20 24 -5 17 -26 -7 -12 -13 -13 -18 -4 -13 9 5 8 0 -4 -13 -21 -25 -36 -31 -16 -7 7 8 8 15 2 15 -12 0 -34 -25 -27 -32 3 -3 -3 -11 -12 -19 -16 -13 -17 -12 -4 4 7 9 9 17 3 17 -11 0 -30 -21 -30 -33 0 -5 -4 -12 -8 -15 -4 -4 -4 -1 1 7 5 9 3 12 -6 9 -8 -3 -14 -10 -14 -16 0 -5 -4 -14 -9 -19 -5 -5 -6 -3 -2 5 11 18 0 15 -44 -14 -22 -15 -37 -30 -35 -35 3 -4 0 -11 -6 -15 -8 -4 -9 -3 -5 4 11 18 2 15 -65 -25 -92 -53 -225 -109 -331 -137 -287 -77 -510 -54 -987 103 l-215 70 -180 -46 c-100 -25 -187 -49 -195 -53 -8 -4 5 -10 35 -14 98 -14 293 -69 575 -161 159 -53 336 -107 394 -120 332 -79 593 -49 889 99 78 39 141 76 141 83 0 6 4 15 9 20 5 5 6 2 1 -6 -5 -9 -3 -12 6 -9 8 3 14 10 14 16 0 5 4 14 9 19 5 5 6 2 1 -6 -5 -9 -3 -12 6 -9 8 3 14 10 14 16 0 5 4 14 9 19 5 5 6 2 1 -6 -5 -9 -3 -12 6 -9 8 3 13 10 12 16 -2 6 12 21 29 33 17 13 28 18 24 11 -14 -23 10 -11 59 29 65 53 91 81 43 45 -53 -38 -47 -26 10 20 26 21 41 31 33 21 -24 -30 4 -18 35 15 16 18 20 26 9 18 -11 -8 -2 5 20 28 21 23 41 42 44 42 3 0 -8 -13 -24 -30 -16 -16 -24 -30 -19 -30 17 0 85 76 77 85 -5 4 -3 5 3 2 6 -4 20 3 30 16 19 21 19 21 -1 7 -11 -7 9 16 45 53 35 37 67 67 69 67 3 0 -19 -25 -49 -55 -30 -30 -50 -55 -45 -55 13 0 411 398 407 406 -2 3 0 9 4 12 4 4 4 0 -1 -8 -4 -8 16 8 46 35 29 28 56 51 58 53 11 6 -26 -3 -195 -47z m156 26 c0 -2 -12 -14 -27 -28 -15 -13 -21 -16 -13 -6 12 17 11 18 -16 13 -19 -4 -16 -1 11 8 22 8 41 15 43 15 1 1 2 0 2 -2z m-115 -37 c-11 -5 -27 -9 -35 -9 -9 0 -8 4 5 9 11 5 27 9 35 9 9 0 8 -4 -5 -9z m-80 -20 c-11 -5 -27 -9 -35 -9 -9 0 -8 4 5 9 11 5 27 9 35 9 9 0 8 -4 -5 -9z m-80 -20 c-11 -5 -27 -9 -35 -9 -9 0 -8 4 5 9 11 5 27 9 35 9 9 0 8 -4 -5 -9z m-180 -130 c-66 -66 -122 -120 -125 -120 -2 0 49 54 115 120 66 66 122 120 125 120 2 0 -49 -54 -115 -120z m-2110 -470 c13 -6 15 -9 5 -9 -8 0 -22 4 -30 9 -18 12 -2 12 25 0z m1535 5 c0 -2 -10 -9 -22 -15 -22 -11 -22 -10 -4 4 21 17 26 19 26 11z m-1700 -25 c-8 -5 -22 -9 -30 -9 -10 0 -8 3 5 9 27 12 43 12 25 0z m225 0 c13 -6 15 -9 5 -9 -8 0 -22 4 -30 9 -18 12 -2 12 25 0z m-305 -20 c-8 -5 -19 -10 -25 -10 -5 0 -3 5 5 10 8 5 20 10 25 10 6 0 3 -5 -5 -10z m475 -35 c55 -18 95 -34 89 -34 -13 -1 -226 67 -233 75 -9 8 32 -3 144 -41z m1235 40 c0 -6 -97 -55 -107 -55 -4 1 17 14 47 30 61 32 60 32 60 25z m340 1 c0 -2 -8 -10 -17 -17 -16 -13 -17 -12 -4 4 13 16 21 21 21 13z m-2130 -26 c-16 -10 -13 -11 35 -24 11 -3 3 -3 -19 -1 -21 2 -41 7 -44 10 -7 7 17 25 33 25 6 0 3 -4 -5 -10z m165 -56 c38 -13 38 -13 5 -7 -19 3 -53 12 -75 19 -38 13 -38 13 -5 7 19 -3 53 -12 75 -19z m1465 1 c-14 -8 -32 -14 -40 -14 -8 0 -1 6 15 14 40 18 57 18 25 0z m-841 -31 c10 -9 -35 -3 -49 6 -11 8 -7 9 15 4 17 -4 32 -8 34 -10z m-489 -9 c19 -7 28 -13 20 -13 -8 0 -31 6 -50 13 -19 7 -28 13 -20 13 8 0 31 -6 50 -13z m1247 9 c-3 -3 -12 -4 -19 -1 -8 3 -5 6 6 6 11 1 17 -2 13 -5z m-697 -14 c20 -6 21 -8 5 -8 -11 0 -29 3 -40 8 -25 11 1 11 35 0z m650 0 c-8 -5 -24 -9 -35 -9 -16 1 -16 2 5 9 35 11 48 11 30 0z m-1125 -20 c13 -6 15 -9 5 -9 -8 0 -22 4 -30 9 -18 12 -2 12 25 0z m542 4 c-3 -3 -12 -4 -19 -1 -8 3 -5 6 6 6 11 1 17 -2 13 -5z m508 -4 c-11 -5 -33 -8 -50 -8 -29 1 -29 1 5 8 49 10 69 10 45 0z m-447 -7 c-10 -2 -26 -2 -35 0 -10 3 -2 5 17 5 19 0 27 -2 18 -5z m-543 -13 c13 -6 15 -9 5 -9 -8 0 -22 4 -30 9 -18 12 -2 12 25 0z m623 3 c-10 -2 -28 -2 -40 0 -13 2 -5 4 17 4 22 1 32 -1 23 -4z m260 0 c-10 -2 -26 -2 -35 0 -10 3 -2 5 17 5 19 0 27 -2 18 -5z m582 2 c0 -2 -10 -9 -22 -15 -22 -11 -22 -10 -4 4 21 17 26 19 26 11z m-682 -12 c-27 -2 -69 -2 -95 0 -27 2 -5 3 47 3 52 0 74 -1 48 -3z m-723 -13 c13 -6 15 -9 5 -9 -8 0 -22 4 -30 9 -18 12 -2 12 25 0z m1355 -6 c0 -6 -164 -84 -176 -83 -5 0 32 20 81 44 106 51 95 46 95 39z m-1295 -14 c13 -6 15 -9 5 -9 -8 0 -22 4 -30 9 -18 12 -2 12 25 0z m60 -20 c13 -6 15 -9 5 -9 -8 0 -22 4 -30 9 -18 12 -2 12 25 0z m175 -54 c25 -8 36 -15 25 -15 -21 1 -98 27 -80 28 6 0 30 -6 55 -13z m820 -21 c-19 -7 -42 -13 -50 -13 -8 0 1 6 20 13 19 7 42 13 50 13 8 0 -1 -6 -20 -13z m-680 -16 c41 -10 57 -17 35 -14 -40 5 -139 33 -120 34 6 0 44 -9 85 -20z m607 -5 c-3 -3 -12 -4 -19 -1 -8 3 -5 6 6 6 11 1 17 -2 13 -5z m-44 -11 c-7 -2 -19 -2 -25 0 -7 3 -2 5 12 5 14 0 19 -2 13 -5z m-314 -19 c8 -7 -94 -3 -134 6 -28 6 -14 6 45 3 47 -3 87 -7 89 -9z m264 9 c-7 -2 -19 -2 -25 0 -7 3 -2 5 12 5 14 0 19 -2 13 -5z m-65 -10 c-15 -2 -42 -2 -60 0 -18 2 -6 4 27 4 33 0 48 -2 33 -4z"
       id="path16"
       style="fill:#f9f9f9" />
    <path
       d="M6155 3489 c-127 -12 -264 -47 -339 -85 -99 -51 -131 -72 -131 -85 0 -6 -11 -18 -25 -27 l-25 -14 25 21 c30 24 20 28 -15 5 -14 -9 -23 -20 -20 -24 3 -4 -3 -14 -13 -21 -15 -13 -16 -12 -3 4 7 9 9 17 4 17 -13 0 -45 -35 -38 -42 3 -3 -3 -11 -12 -19 -16 -13 -17 -12 -4 4 7 9 9 17 3 17 -12 0 -34 -25 -27 -32 3 -3 -5 -13 -17 -24 l-23 -19 19 23 c11 12 15 22 9 22 -12 0 -55 -45 -48 -51 2 -3 -17 -25 -43 -50 l-47 -44 40 43 c21 23 35 42 29 42 -5 0 -101 -89 -214 -199 l-205 -198 188 48 c103 26 192 51 197 54 14 9 12 -9 -2 -23 -8 -8 3 -7 33 3 26 9 61 32 80 52 19 21 26 31 17 24 -29 -22 -20 -7 14 25 18 16 24 19 14 7 -27 -32 -5 -29 25 4 13 14 17 22 9 18 -10 -5 -8 -1 4 13 21 25 36 31 16 7 -7 -8 -8 -15 -3 -15 13 0 45 35 38 42 -3 3 3 11 12 19 16 13 17 12 4 -3 -8 -11 -9 -18 -3 -18 11 0 27 19 27 32 0 3 4 10 9 15 5 5 6 2 1 -6 -5 -9 -3 -12 6 -9 8 3 14 10 14 16 0 6 7 17 15 24 12 11 12 11 1 -4 -20 -26 -5 -22 45 13 41 28 73 44 192 94 29 13 39 21 30 27 -10 6 -10 8 0 8 6 0 12 11 12 24 0 44 10 56 49 56 54 1 116 33 145 77 30 46 46 124 25 122 -8 -1 -50 -5 -94 -10z m73 -16 c-15 -2 -42 -2 -60 0 -18 2 -6 4 27 4 33 0 48 -2 33 -4z m-143 -13 c-16 -4 -39 -8 -50 -8 -16 0 -15 2 5 8 14 4 36 8 50 8 22 0 22 -1 -5 -8z m-111 -22 l-32 -10 29 -110 c17 -61 28 -112 26 -114 -3 -3 -28 81 -63 218 -3 11 3 18 18 21 42 8 53 5 22 -5z m-89 -162 c21 -77 24 -101 14 -110 -9 -8 -10 -8 -5 2 7 12 -35 179 -54 213 -5 9 -6 20 -2 24 8 8 14 -7 47 -129z m-66 110 c-2 -2 -15 -9 -29 -15 -24 -11 -24 -11 -6 3 16 13 49 24 35 12z m-79 -41 c0 -2 -10 -9 -22 -15 -22 -11 -22 -10 -4 4 21 17 26 19 26 11z m140 -190 c0 -2 -13 -11 -30 -20 -38 -19 -40 -11 -2 9 31 17 32 18 32 11z m-70 -40 c0 -2 -10 -9 -22 -15 -22 -11 -22 -10 -4 4 21 17 26 19 26 11z m-440 -58 c0 -1 -33 -34 -72 -72 l-73 -70 70 73 c64 67 75 77 75 69z m125 -187 c-10 -11 -28 -19 -39 -19 -20 2 -20 2 1 6 12 2 27 11 33 19 7 8 15 14 18 14 3 0 -3 -9 -13 -20z m-95 -10 c-8 -5 -24 -9 -35 -9 -16 1 -16 2 5 9 35 11 48 11 30 0z m-75 -20 c-11 -5 -29 -8 -40 -8 -16 0 -15 2 5 8 34 11 60 11 35 0z m-80 -20 c-11 -5 -29 -8 -40 -8 -16 0 -15 2 5 8 34 11 60 11 35 0z m-105 -27 c-52 -17 -70 -21 -70 -17 0 8 43 23 65 23 13 -1 15 -2 5 -6z"
       id="path18"
       style="fill:#f9f9f9" />
    <path
       d="M1475 3183 c-279 -34 -499 -94 -679 -184 -109 -55 -147 -79 -141 -89 3 -5 0 -12 -6 -16 -8 -5 -9 -3 -4 6 5 8 3 11 -6 8 -8 -3 -14 -10 -14 -16 0 -6 -7 -17 -15 -24 -12 -11 -12 -11 -1 5 7 9 9 17 3 17 -11 0 -40 -32 -32 -36 3 -1 -17 -21 -45 -44 l-50 -42 48 46 c27 25 45 46 40 46 -5 0 -42 -30 -82 -67 l-72 -68 21 -100 c29 -138 26 -134 58 -96 19 22 43 36 80 46 59 15 106 41 97 54 -2 5 3 15 13 22 15 13 16 12 3 -3 -7 -10 -9 -18 -3 -18 11 0 39 31 34 37 -2 3 0 8 4 11 4 4 4 1 -1 -7 -5 -9 -3 -12 6 -9 8 3 14 10 14 16 0 5 4 14 9 19 5 5 6 3 2 -4 -9 -16 -1 -16 25 -2 11 5 17 14 14 19 -3 5 0 12 6 16 8 4 9 3 5 -4 -11 -18 -4 -15 94 33 258 130 648 206 966 189 117 -6 138 -4 195 14 35 11 80 24 99 28 30 6 32 8 15 15 -14 7 -11 7 12 3 18 -3 60 3 100 15 37 11 87 23 111 27 24 4 40 10 35 14 -25 23 -369 100 -533 120 -79 9 -358 12 -425 3z m273 -10 c-38 -2 -98 -2 -135 0 -38 2 -7 3 67 3 74 0 105 -1 68 -3z m-260 -10 c-10 -2 -28 -2 -40 0 -13 2 -5 4 17 4 22 1 32 -1 23 -4z m410 0 c-10 -2 -26 -2 -35 0 -10 3 -2 5 17 5 19 0 27 -2 18 -5z m-490 -10 c-10 -2 -26 -2 -35 0 -10 3 -2 5 17 5 19 0 27 -2 18 -5z m570 0 c-10 -2 -28 -2 -40 0 -13 2 -5 4 17 4 22 1 32 -1 23 -4z m-668 -13 c-14 -4 -34 -8 -45 -8 -16 0 -15 2 5 8 14 4 34 8 45 8 16 0 15 -2 -5 -8z m765 0 c27 -7 27 -8 5 -8 -14 0 -36 4 -50 8 -20 6 -21 8 -5 8 11 0 34 -4 50 -8z m-848 -16 c-3 -3 -12 -4 -19 -1 -8 3 -5 6 6 6 11 1 17 -2 13 -5z m943 -4 c20 -6 21 -8 5 -8 -11 0 -31 4 -45 8 -20 6 -21 8 -5 8 11 0 31 -4 45 -8z m-987 -7 c-7 -2 -19 -2 -25 0 -7 3 -2 5 12 5 14 0 19 -2 13 -5z m1072 -13 c13 -5 14 -9 5 -9 -8 0 -24 4 -35 9 -13 5 -14 9 -5 9 8 0 24 -4 35 -9z m-1148 -6 c-3 -3 -12 -4 -19 -1 -8 3 -5 6 6 6 11 1 17 -2 13 -5z m-112 -34 c-44 -16 -84 -28 -89 -27 -10 3 134 56 154 56 8 0 -21 -13 -65 -29z m1354 14 c10 -9 -35 -3 -49 6 -11 8 -7 9 15 4 17 -4 32 -8 34 -10z m36 -14 c3 -5 2 -10 -4 -10 -5 0 -13 5 -16 10 -3 6 -2 10 4 10 5 0 13 -4 16 -10z m-60 -20 c-27 -12 -43 -12 -25 0 8 5 22 9 30 9 10 0 8 -3 -5 -9z m-1437 -15 c-10 -10 -168 -84 -168 -79 0 5 159 84 169 84 2 0 2 -2 -1 -5z m925 -62 c-29 -2 -78 -2 -110 0 -32 2 -8 3 52 3 61 0 87 -1 58 -3z m-195 -10 c-15 -2 -42 -2 -60 0 -18 2 -6 4 27 4 33 0 48 -2 33 -4z m360 0 c-21 -2 -55 -2 -75 0 -21 2 -4 4 37 4 41 0 58 -2 38 -4z m-475 -10 c-7 -2 -21 -2 -30 0 -10 3 -4 5 12 5 17 0 24 -2 18 -5z m-793 -8 c0 -2 -10 -9 -22 -15 -22 -11 -22 -10 -4 4 21 17 26 19 26 11z m733 -2 c-7 -2 -21 -2 -30 0 -10 3 -4 5 12 5 17 0 24 -2 18 -5z m-60 -10 c-7 -2 -19 -2 -25 0 -7 3 -2 5 12 5 14 0 19 -2 13 -5z m-50 -10 c-7 -2 -19 -2 -25 0 -7 3 -2 5 12 5 14 0 19 -2 13 -5z m-63 -13 c-34 -11 -60 -11 -35 0 11 5 29 8 40 8 16 0 15 -2 -5 -8z m-75 -20 c-11 -5 -27 -9 -35 -9 -9 0 -8 4 5 9 11 5 27 9 35 9 9 0 8 -4 -5 -9z m-70 -20 c-27 -12 -43 -12 -25 0 8 5 22 9 30 9 10 0 8 -3 -5 -9z m-176 -64 c-10 -9 -129 -66 -129 -61 0 6 111 64 124 65 5 0 7 -2 5 -4z m-479 -39 c0 -2 -10 -12 -22 -23 l-23 -19 19 23 c18 21 26 27 26 19z m-12 -122 c0 -16 -2 -15 -8 5 -4 14 -8 34 -8 45 0 16 2 15 8 -5 4 -14 8 -34 8 -45z m192 -20 c-7 -8 -17 -15 -23 -15 -6 0 -2 7 9 15 25 19 30 19 14 0z m-150 -63 c8 7 6 3 -4 -10 -11 -12 -20 -21 -21 -20 -1 2 -5 21 -8 43 l-6 40 12 -33 c10 -27 15 -31 27 -20z m107 42 c-3 -3 -12 -4 -19 -1 -8 3 -5 6 6 6 11 1 17 -2 13 -5z m-52 -14 c-27 -12 -43 -12 -25 0 8 5 22 9 30 9 10 0 8 -3 -5 -9z"
       id="path20"
       style="fill:#f9f9f9" />
    <path
       d="M4244 2915 c-10 -8 -14 -15 -8 -15 6 0 17 7 24 15 16 19 9 19 -16 0z"
       id="path22"
       style="fill:#f9f9f9" />
    <path
       d="M5185 2759 l-190 -50 -52 -51 c-29 -28 -50 -55 -47 -60 3 -5 1 -7 -4 -6 -9 3 -272 -229 -272 -240 0 -2 8 2 18 9 14 11 13 10 -2 -9 -20 -23 -32 -30 -21 -12 3 6 2 10 -3 10 -12 0 -33 -25 -27 -32 3 -3 -5 -13 -17 -24 -18 -15 -20 -16 -9 -1 19 25 -2 21 -25 -5 -12 -13 -13 -18 -4 -13 9 5 8 0 -4 -13 -21 -25 -36 -31 -16 -7 7 8 8 15 2 15 -12 0 -31 -22 -29 -34 1 -5 -9 -15 -23 -24 l-25 -14 25 21 c32 27 17 27 -21 0 -16 -11 -27 -24 -24 -29 3 -5 0 -12 -6 -16 -8 -5 -9 -3 -4 6 5 8 3 11 -6 8 -8 -3 -14 -10 -14 -16 0 -5 -4 -14 -9 -19 -5 -5 -6 -2 -1 6 5 9 3 12 -6 9 -8 -3 -14 -10 -14 -16 0 -5 -4 -14 -9 -19 -5 -5 -6 -2 -1 6 5 9 3 12 -6 9 -8 -3 -14 -10 -14 -15 0 -6 -4 -15 -9 -20 -5 -5 -6 -3 -2 5 4 6 5 12 3 12 -2 0 -51 -25 -108 -54 -186 -98 -404 -156 -584 -156 -173 0 -363 41 -694 149 -149 48 -220 67 -235 62 -11 -4 -99 -27 -194 -51 l-173 -43 108 -22 c137 -28 168 -37 518 -150 160 -52 337 -106 395 -119 256 -61 437 -60 666 4 129 36 407 176 401 201 -1 6 9 18 23 26 l25 15 -25 -21 c-30 -24 -20 -28 15 -5 14 9 23 20 20 24 -3 4 3 14 13 21 15 13 16 12 3 -3 -7 -10 -9 -18 -3 -18 11 0 30 21 30 33 0 5 4 12 8 15 4 4 4 1 -1 -7 -5 -9 -3 -12 6 -9 8 3 13 10 12 16 -2 6 16 26 40 44 23 18 36 25 28 15 -7 -9 -9 -17 -4 -17 13 0 45 35 38 42 -3 2 7 15 22 29 25 22 26 22 9 2 -27 -32 -5 -29 25 4 13 14 17 23 9 18 -8 -4 1 8 19 28 19 21 37 37 40 37 3 0 -8 -14 -25 -31 -16 -18 -24 -30 -17 -28 26 9 323 301 316 312 -3 7 -2 9 2 4 11 -9 106 83 99 95 -3 5 0 7 8 6 7 -2 12 3 11 10 -2 6 3 11 10 10 6 -2 11 3 10 10 -2 6 3 11 10 10 6 -2 11 3 10 10 -2 6 3 11 10 10 6 -2 11 3 10 10 -2 6 1 11 5 10 5 -2 41 27 81 65 39 37 70 67 69 66 -2 0 -88 -23 -193 -50z m105 -24 c-24 -25 -46 -45 -49 -45 -3 0 12 17 32 38 21 21 34 41 31 45 -4 4 1 7 11 7 15 0 9 -10 -25 -45z m-15 25 c-11 -5 -29 -8 -40 -8 -16 0 -15 2 5 8 34 11 60 11 35 0z m-80 -20 c-11 -5 -29 -8 -40 -8 -16 0 -15 2 5 8 34 11 60 11 35 0z m-102 -27 c-7 -2 -19 -2 -25 0 -7 3 -2 5 12 5 14 0 19 -2 13 -5z m-43 -7 c0 -2 -13 -9 -30 -15 -35 -12 -41 -5 -7 9 25 10 37 12 37 6z m-170 -129 c0 -1 -30 -32 -67 -67 l-68 -65 65 68 c60 62 70 72 70 64z m250 -1 c0 -2 -8 -10 -17 -17 -16 -13 -17 -12 -4 4 13 16 21 21 21 13z m-40 -40 c0 -2 -8 -10 -17 -17 -16 -13 -17 -12 -4 4 13 16 21 21 21 13z m-350 -89 c0 -2 -17 -19 -37 -38 l-38 -34 34 38 c33 34 41 42 41 34z m110 -142 c-24 -25 -46 -45 -49 -45 -3 0 15 20 39 45 24 25 46 45 49 45 3 0 -15 -20 -39 -45z m-2133 -191 c-3 -3 -12 -4 -19 -1 -8 3 -5 6 6 6 11 1 17 -2 13 -5z m1583 -9 c0 -2 -13 -11 -30 -20 -38 -19 -40 -11 -2 9 31 17 32 18 32 11z m-1663 -11 c-3 -3 -12 -4 -19 -1 -8 3 -5 6 6 6 11 1 17 -2 13 -5z m193 -4 c18 -12 2 -12 -25 0 -13 6 -15 9 -5 9 8 0 22 -4 30 -9z m60 -20 c18 -12 2 -12 -25 0 -13 6 -15 9 -5 9 8 0 22 -4 30 -9z m60 -20 c18 -12 2 -12 -25 0 -13 6 -15 9 -5 9 8 0 22 -4 30 -9z m-510 -10 c12 -8 9 -10 -13 -10 -16 0 -26 4 -22 10 8 12 16 12 35 0z m570 -10 c18 -12 2 -12 -25 0 -13 6 -15 9 -5 9 8 0 22 -4 30 -9z m-455 -21 c13 -6 5 -6 -20 -2 -22 3 -49 10 -60 14 -13 6 -5 6 20 2 22 -3 49 -10 60 -14z m502 5 c-3 -3 -12 -4 -19 -1 -8 3 -5 6 6 6 11 1 17 -2 13 -5z m1073 2 c0 -6 -157 -66 -172 -66 -7 1 25 16 72 34 89 35 100 39 100 32z m-1025 -16 c13 -6 15 -9 5 -9 -8 0 -22 4 -30 9 -18 12 -2 12 25 0z m-498 -6 c-3 -3 -12 -4 -19 -1 -8 3 -5 6 6 6 11 1 17 -2 13 -5z m93 -25 c18 -11 -34 -1 -65 13 -13 5 -9 6 15 2 19 -4 42 -10 50 -15z m487 5 c-3 -3 -12 -4 -19 -1 -8 3 -5 6 6 6 11 1 17 -2 13 -5z m63 -14 c20 -6 21 -8 5 -8 -11 0 -29 3 -40 8 -25 11 1 11 35 0z m-490 -10 c18 -12 2 -12 -25 0 -13 6 -15 9 -5 9 8 0 22 -4 30 -9z m599 -16 c9 -8 -45 -2 -64 6 -14 7 -8 8 20 3 22 -3 42 -7 44 -9z m566 6 c-11 -5 -29 -8 -40 -8 -16 0 -15 2 5 8 34 11 60 11 35 0z m460 -6 c-26 -20 -55 -36 -55 -30 0 5 63 46 70 46 3 -1 -4 -8 -15 -16z m-1565 -4 c18 -12 2 -12 -25 0 -13 6 -15 9 -5 9 8 0 22 -4 30 -9z m583 -7 c-7 -2 -19 -2 -25 0 -7 3 -2 5 12 5 14 0 19 -2 13 -5z m450 0 c-7 -2 -19 -2 -25 0 -7 3 -2 5 12 5 14 0 19 -2 13 -5z m-973 -13 c18 -12 2 -12 -25 0 -13 6 -15 9 -5 9 8 0 22 -4 30 -9z m885 -2 c-64 -8 -223 -8 -295 0 -31 4 33 7 145 7 110 0 178 -3 150 -7z m-825 -18 c18 -12 2 -12 -25 0 -13 6 -15 9 -5 9 8 0 22 -4 30 -9z m1360 -5 c0 -6 -117 -65 -127 -65 -4 1 21 16 57 35 72 38 70 37 70 30z m-1300 -15 c18 -12 2 -12 -25 0 -13 6 -15 9 -5 9 8 0 22 -4 30 -9z m60 -20 c18 -12 2 -12 -25 0 -13 6 -15 9 -5 9 8 0 22 -4 30 -9z m47 -16 c-3 -3 -12 -4 -19 -1 -8 3 -5 6 6 6 11 1 17 -2 13 -5z m60 -20 c-3 -3 -12 -4 -19 -1 -8 3 -5 6 6 6 11 1 17 -2 13 -5z m973 -8 c-14 -7 -36 -16 -50 -20 -14 -3 -7 3 15 13 45 22 73 27 35 7z m-870 -20 c25 -8 36 -15 25 -15 -21 1 -98 27 -80 28 6 0 30 -6 55 -13z m760 -20 c-34 -13 -127 -30 -103 -20 19 9 107 31 123 32 8 0 -1 -5 -20 -12z m-610 -17 c16 -6 10 -7 -20 -3 -25 4 -54 10 -65 15 -24 10 48 0 85 -12z m88 -16 c-10 -2 -28 -2 -40 0 -13 2 -5 4 17 4 22 1 32 -1 23 -4z m390 0 c-10 -2 -26 -2 -35 0 -10 3 -2 5 17 5 19 0 27 -2 18 -5z m-320 -10 c-10 -2 -26 -2 -35 0 -10 3 -2 5 17 5 19 0 27 -2 18 -5z m250 0 c-10 -2 -26 -2 -35 0 -10 3 -2 5 17 5 19 0 27 -2 18 -5z m-95 -10 c-24 -2 -62 -2 -85 0 -24 2 -5 4 42 4 47 0 66 -2 43 -4z"
       id="path24"
       style="fill:#f9f9f9" />
    <path
       d="M1730 2274 c-223 -27 -414 -72 -575 -136 -113 -44 -311 -157 -308 -175 1 -6 -5 -17 -15 -25 -15 -12 -16 -11 -3 5 7 9 9 17 3 17 -12 0 -34 -25 -27 -32 3 -3 -5 -13 -17 -24 l-23 -19 19 23 c30 34 3 26 -30 -10 -16 -18 -20 -26 -9 -18 11 8 -5 -13 -36 -46 -31 -32 -59 -66 -62 -74 -5 -13 -6 -13 -6 0 -1 8 20 36 46 62 26 26 43 48 37 48 -5 0 -30 -20 -54 -45 l-44 -44 18 -83 c9 -46 22 -100 27 -121 l10 -37 24 29 c32 38 32 51 0 21 -22 -21 -25 -22 -25 -5 0 10 3 15 7 12 3 -4 15 1 26 10 10 10 22 18 26 18 3 0 5 4 3 8 -1 5 2 6 7 3 5 -4 12 -2 15 3 3 5 30 15 58 21 56 13 112 46 103 60 -3 4 3 14 13 21 15 13 16 12 3 -3 -7 -10 -9 -18 -3 -18 11 0 39 31 34 37 -2 3 0 8 4 11 4 4 4 1 -1 -7 -5 -9 -3 -12 6 -9 8 3 14 10 14 16 0 5 4 14 9 19 5 5 6 3 2 -4 -10 -17 5 -16 30 1 42 30 202 105 284 134 233 82 445 115 725 114 206 -1 294 9 264 29 -10 7 -6 8 11 4 14 -3 99 13 199 38 198 51 199 42 -9 96 -207 55 -337 73 -550 76 -107 2 -211 1 -230 -1z m253 -11 c-35 -2 -91 -2 -125 0 -35 2 -7 3 62 3 69 0 97 -1 63 -3z m-220 -10 c-18 -2 -48 -2 -65 0 -18 2 -4 4 32 4 36 0 50 -2 33 -4z m385 0 c-15 -2 -42 -2 -60 0 -18 2 -6 4 27 4 33 0 48 -2 33 -4z m-495 -10 c-7 -2 -21 -2 -30 0 -10 3 -4 5 12 5 17 0 24 -2 18 -5z m646 -9 c8 -7 -63 -2 -94 7 -20 5 -9 6 30 2 33 -3 62 -7 64 -9z m-711 -1 c-10 -2 -26 -2 -35 0 -10 3 -2 5 17 5 19 0 27 -2 18 -5z m-61 -9 c-3 -3 -12 -4 -19 -1 -8 3 -5 6 6 6 11 1 17 -2 13 -5z m810 0 c-3 -3 -12 -4 -19 -1 -8 3 -5 6 6 6 11 1 17 -2 13 -5z m-854 -11 c-7 -2 -21 -2 -30 0 -10 3 -4 5 12 5 17 0 24 -2 18 -5z m910 0 c-7 -2 -21 -2 -30 0 -10 3 -4 5 12 5 17 0 24 -2 18 -5z m-983 -13 c-14 -5 -77 -25 -140 -45 -63 -20 -122 -38 -130 -41 -8 -3 -3 2 11 10 29 17 246 85 269 85 8 0 4 -4 -10 -9z m1050 0 c20 -6 21 -8 5 -8 -11 0 -29 3 -40 8 -25 11 1 11 35 0z m101 -26 c76 -21 82 -24 77 -30 -3 -2 -39 7 -79 20 -83 28 -82 34 2 10z m14 -44 c-11 -5 -27 -9 -35 -9 -9 0 -8 4 5 9 11 5 27 9 35 9 9 0 8 -4 -5 -9z m-1475 -35 c-14 -8 -29 -14 -35 -14 -5 0 1 6 15 14 14 8 30 14 35 14 6 0 -1 -6 -15 -14z m1377 9 c-3 -3 -12 -4 -19 -1 -8 3 -5 6 6 6 11 1 17 -2 13 -5z m-1452 -42 c-17 -15 -105 -63 -105 -58 0 3 24 19 53 36 52 30 69 37 52 22z m1033 -9 c-32 -2 -84 -2 -115 0 -32 2 -6 3 57 3 63 0 89 -1 58 -3z m-243 -14 c-117 -14 -205 -29 -309 -55 -107 -26 -143 -27 -49 -1 124 34 300 64 383 64 32 0 24 -2 -25 -8z m412 4 c-20 -2 -52 -2 -70 0 -17 2 0 4 38 4 39 0 53 -2 32 -4z m-1317 -47 c0 -2 -12 -11 -27 -20 l-28 -17 24 20 c23 21 31 25 31 17z m355 -86 c-22 -10 -44 -18 -50 -18 -5 0 8 8 30 19 22 10 45 18 50 18 6 0 -8 -9 -30 -19z m-86 -34 c-10 -9 -69 -36 -69 -32 0 7 52 35 64 36 5 0 7 -2 5 -4z m-119 -61 c0 -2 -10 -9 -22 -15 -22 -11 -22 -10 -4 4 21 17 26 19 26 11z m-403 -97 c-3 -8 -6 -5 -6 6 -1 11 2 17 5 13 3 -3 4 -12 1 -19z m243 -13 c-7 -8 -17 -15 -23 -15 -6 0 -2 7 9 15 25 19 30 19 14 0z m-222 -70 c0 -16 -2 -15 -8 5 -11 34 -11 60 0 35 5 -11 8 -29 8 -40z m143 39 c-25 -8 -47 -12 -49 -9 -5 5 56 23 78 23 8 0 -5 -6 -29 -14z"
       id="path26"
       style="fill:#f9f9f9" />
    <path
       d="M4569 2060 c-13 -10 -19 -19 -13 -20 6 0 19 9 29 20 23 26 14 26 -16 0z"
       id="path28"
       style="fill:#f9f9f9" />
  </g>
</svg>
