<?xml version="1.0" encoding="UTF-8" standalone="no"?>
<svg
   version="1.0"
   width="1280.000000pt"
   height="1206.000000pt"
   viewBox="0 0 1280.000000 1206.000000"
   preserveAspectRatio="xMidYMid meet"
   id="svg10"
   sodipodi:docname="309113.svg"
   inkscape:version="1.2-beta (1b65182, 2022-04-05)"
   xmlns:inkscape="http://www.inkscape.org/namespaces/inkscape"
   xmlns:sodipodi="http://sodipodi.sourceforge.net/DTD/sodipodi-0.dtd"
   xmlns="http://www.w3.org/2000/svg"
   xmlns:svg="http://www.w3.org/2000/svg">
  <defs
     id="defs14" />
  <sodipodi:namedview
     id="namedview12"
     pagecolor="#505050"
     bordercolor="#ffffff"
     borderopacity="1"
     inkscape:pageshadow="0"
     inkscape:pageopacity="0"
     inkscape:pagecheckerboard="1"
     inkscape:deskcolor="#505050"
     inkscape:document-units="pt"
     showgrid="false"
     inkscape:zoom="0.27083333"
     inkscape:cx="915.69231"
     inkscape:cy="827.07692"
     inkscape:window-width="1920"
     inkscape:window-height="1043"
     inkscape:window-x="0"
     inkscape:window-y="0"
     inkscape:window-maximized="1"
     inkscape:current-layer="svg10" />
  <metadata
     id="metadata2">
Created by potrace 1.15, written by Peter Selinger 2001-2017
</metadata>
  <g
     transform="translate(0.000000,1206.000000) scale(0.100000,-0.100000)"
     fill="#000000"
     stroke="none"
     id="g8"
     style="fill:#f9f9f9">
    <path
       d="M5828 11600 c-282 -250 -1418 -1256 -2523 -2235 -1106 -978 -2165 -1917 -2355 -2085 -190 -168 -460 -407 -600 -530 -140 -124 -276 -245 -302 -270 l-48 -45 330 -370 c181 -203 336 -369 343 -369 8 1 603 521 1323 1156 3778 3332 4388 3868 4395 3866 4 -2 470 -413 1036 -914 565 -501 1842 -1631 2836 -2512 994 -881 1812 -1602 1817 -1602 5 0 12 5 15 10 5 8 11 7 21 -1 19 -15 -10 -45 339 351 153 173 293 331 312 351 l34 36 -838 739 c-461 407 -1544 1363 -2408 2124 -863 762 -1919 1693 -2347 2070 l-776 685 -45 0 -45 0 -514 -455z"
       id="path4"
       style="fill:#f9f9f9" />
    <path
       d="M5707 9301 c-364 -322 -1370 -1213 -2235 -1979 l-1572 -1393 2 -2872 3 -2872 22 -41 c12 -23 41 -58 64 -77 83 -72 -24 -67 1561 -67 l1428 0 2 1273 c3 1266 3 1272 24 1317 26 58 76 108 134 134 45 21 52 21 1224 24 1304 3 1248 5 1322 -60 52 -46 81 -97 93 -163 8 -40 11 -454 11 -1292 l0 -1233 1484 2 1485 3 30 29 c17 16 45 63 63 105 l33 76 2 2860 2 2860 -2240 1975 c-1270 1120 -2249 1976 -2260 1976 -13 1 -247 -200 -682 -585z"
       id="path6"
       style="fill:#f9f9f9" />
  </g>
</svg>
