<?xml version="1.0" standalone="no"?>
<!DOCTYPE svg PUBLIC "-//W3C//DTD SVG 20010904//EN"
 "http://www.w3.org/TR/2001/REC-SVG-20010904/DTD/svg10.dtd">
<svg version="1.0" xmlns="http://www.w3.org/2000/svg"
 width="1280.000000pt" height="1066.000000pt" viewBox="0 0 1280.000000 1066.000000"
 preserveAspectRatio="xMidYMid meet">
<metadata>
Created by potrace 1.15, written by Peter Selinger 2001-2017
</metadata>
<g transform="translate(0.000000,1066.000000) scale(0.100000,-0.100000)"
fill="#000000" stroke="none">
<path d="M0 5340 c0 -5313 0 -5320 20 -5320 11 0 20 -4 20 -10 0 -7 2133 -10
6380 -10 l6380 0 0 445 0 445 -70 0 -70 0 0 4770 0 4770 -55 0 c-30 0 -55 5
-55 10 0 7 -1947 10 -5820 10 l-5820 0 0 105 0 105 -455 0 -455 0 0 -5320z
m1380 4730 l0 -280 -235 0 -235 0 0 280 0 280 235 0 235 0 0 -280z m660 0 l0
-280 -275 0 -275 0 0 280 0 280 275 0 275 0 0 -280z m660 0 l0 -280 -275 0
-275 0 0 280 0 280 275 0 275 0 0 -280z m660 0 l0 -280 -275 0 -275 0 0 280 0
280 275 0 275 0 0 -280z m660 0 l0 -280 -275 0 -275 0 0 280 0 280 275 0 275
0 0 -280z m660 0 l0 -280 -275 0 -275 0 0 280 0 280 275 0 275 0 0 -280z m665
0 l0 -280 -277 0 -278 0 0 280 0 280 278 0 277 0 0 -280z m665 0 l0 -280 -280
0 -280 0 0 280 0 280 280 0 280 0 0 -280z m660 0 l0 -280 -280 0 -280 0 0 280
0 280 280 0 280 0 0 -280z m660 0 l0 -280 -280 0 -280 0 0 280 0 280 280 0
280 0 0 -280z m660 0 l0 -280 -280 0 -280 0 0 280 0 280 280 0 280 0 0 -280z
m660 0 l0 -280 -277 0 -278 0 0 280 0 280 278 0 277 0 0 -280z m660 0 l0 -280
-275 0 -275 0 0 280 0 280 275 0 275 0 0 -280z m660 0 l0 -280 -275 0 -275 0
0 280 0 280 275 0 275 0 0 -280z m660 0 l0 -280 -275 0 -275 0 0 280 0 280
275 0 275 0 0 -280z m658 34 l-3 -247 -85 -33 -85 -33 -187 0 -188 -1 0 280 0
280 275 0 275 0 -2 -246z m682 -34 l0 -280 -234 0 -234 0 14 63 c8 34 17 71
20 81 7 22 -1 21 -83 -13 l-53 -21 0 225 0 225 285 0 285 0 0 -280z m580 0 l0
-280 -235 0 -235 0 0 280 0 280 235 0 235 0 0 -280z m-11170 -635 l0 -255
-235 0 -235 0 0 255 0 255 235 0 235 0 0 -255z m660 0 l0 -255 -275 0 -275 0
0 255 0 255 275 0 275 0 0 -255z m660 0 l0 -255 -275 0 -275 0 0 255 0 255
275 0 275 0 0 -255z m660 0 l0 -255 -275 0 -275 0 0 255 0 255 275 0 275 0 0
-255z m660 0 l0 -255 -275 0 -275 0 0 255 0 255 275 0 275 0 0 -255z m660 0
l0 -255 -275 0 -275 0 0 255 0 255 275 0 275 0 0 -255z m663 -3 l2 -252 -277
0 -278 0 0 255 0 255 275 -2 276 -3 2 -253z m665 1 l2 -253 -280 0 -280 0 0
255 0 255 278 -2 277 -3 3 -252z m660 0 l2 -253 -280 0 -280 0 0 255 0 255
278 -2 277 -3 3 -252z m662 2 l0 -255 -280 0 -280 0 0 248 c0 137 3 252 7 255
3 4 129 7 280 7 l273 0 0 -255z m660 0 l0 -255 -280 0 -280 0 0 248 c0 137 3
252 7 255 3 4 129 7 280 7 l273 0 0 -255z m660 0 l0 -255 -277 0 -278 0 2 252
c2 139 3 254 3 256 0 1 124 2 275 2 l275 0 0 -255z m660 0 l0 -255 -275 0
-275 0 0 255 0 255 275 0 275 0 0 -255z m660 87 l0 -168 -97 -36 c-54 -20
-158 -59 -231 -87 -88 -34 -149 -51 -178 -51 l-44 0 0 255 0 255 275 0 275 0
0 -168z m658 126 c-3 -39 -6 -43 -48 -59 -94 -37 -492 -189 -496 -189 -2 0 -4
65 -4 145 l0 145 276 0 275 0 -3 -42z m202 38 c0 -2 -20 -11 -45 -19 -43 -15
-45 -15 -45 4 0 16 7 19 45 19 25 0 45 -2 45 -4z m1140 -251 l0 -255 -285 0
-285 0 0 94 c0 73 8 127 35 242 20 82 38 155 40 162 3 9 62 12 250 12 l245 0
0 -255z m580 0 l0 -255 -235 0 -235 0 0 255 0 255 235 0 235 0 0 -255z
m-11170 -610 l0 -255 -235 0 -235 0 0 255 0 255 235 0 235 0 0 -255z m660 0
l0 -255 -275 0 -275 0 0 255 0 255 275 0 275 0 0 -255z m660 0 l0 -255 -275 0
-275 0 0 255 0 255 275 0 275 0 0 -255z m660 0 l0 -255 -275 0 -275 0 0 255 0
255 275 0 275 0 0 -255z m660 0 l0 -255 -275 0 -275 0 0 255 0 255 275 0 275
0 0 -255z m660 0 l0 -255 -275 0 -275 0 0 255 0 255 275 0 275 0 0 -255z m663
-3 l2 -252 -277 0 -278 0 0 255 0 255 275 -2 276 -3 2 -253z m665 1 l2 -253
-280 0 -280 0 0 255 0 255 278 -2 277 -3 3 -252z m660 0 l2 -253 -280 0 -280
0 0 255 0 255 278 -2 277 -3 3 -252z m662 2 l0 -255 -280 0 -280 0 0 248 c0
137 3 252 7 255 3 4 129 7 280 7 l273 0 0 -255z m660 15 l0 -240 -36 -15 c-29
-12 -85 -15 -280 -15 l-244 0 0 248 c0 137 3 252 7 255 3 4 129 7 280 7 l273
0 0 -240z m660 126 c0 -99 -2 -115 -17 -121 -24 -9 -536 -205 -537 -205 -1 0
3 428 4 438 0 1 124 2 275 2 l275 0 0 -114z m579 110 c-2 -3 -109 -45 -237
-94 l-232 -89 0 93 0 94 237 0 c130 0 234 -2 232 -4z m2741 -251 l0 -255 -285
0 -285 0 0 255 0 255 285 0 285 0 0 -255z m580 0 l0 -255 -235 0 -235 0 0 255
0 255 235 0 235 0 0 -255z m-1260 -100 l0 -155 -41 0 c-34 0 -40 3 -35 18 7
25 66 279 66 286 0 3 2 6 5 6 3 0 5 -70 5 -155z m-9910 -510 l0 -255 -235 0
-235 0 0 255 0 255 235 0 235 0 0 -255z m660 0 l0 -255 -275 0 -275 0 0 255 0
255 275 0 275 0 0 -255z m660 0 l0 -255 -275 0 -275 0 0 255 0 255 275 0 275
0 0 -255z m660 0 l0 -255 -275 0 -275 0 0 255 0 255 275 0 275 0 0 -255z m660
0 l0 -255 -275 0 -275 0 0 255 0 255 275 0 275 0 0 -255z m660 0 l0 -255 -275
0 -275 0 0 255 0 255 275 0 275 0 0 -255z m663 -3 l2 -252 -277 0 -278 0 0
255 0 255 275 -2 276 -3 2 -253z m665 1 l2 -253 -280 0 -280 0 0 255 0 255
278 -2 277 -3 3 -252z m662 72 c0 -214 17 -185 -143 -245 -183 -69 -182 -64
-12 -70 126 -5 105 -6 -127 -8 l-278 -2 0 255 0 255 280 0 280 0 0 -185z m658
123 l-3 -63 -125 -48 c-327 -125 -413 -157 -421 -157 -5 0 -9 74 -9 165 l0
165 280 0 281 0 -3 -62z m311 58 c-5 -5 -195 -76 -203 -76 -8 0 -8 65 1 73 3
4 51 7 106 7 55 0 98 -2 96 -4z m3651 -251 l0 -255 -116 0 c-63 0 -113 3 -111
8 3 4 30 115 62 247 31 132 59 243 62 248 2 4 26 7 54 7 l49 0 0 -255z m680 0
l0 -255 -285 0 -285 0 0 255 0 255 285 0 285 0 0 -255z m580 0 l0 -255 -235 0
-235 0 0 255 0 255 235 0 235 0 0 -255z m-11170 -610 l0 -255 -235 0 -235 0 0
255 0 255 235 0 235 0 0 -255z m660 0 l0 -255 -275 0 -275 0 0 255 0 255 275
0 275 0 0 -255z m660 0 l0 -255 -275 0 -275 0 0 255 0 255 275 0 275 0 0 -255z
m660 0 l0 -255 -275 0 -275 0 0 255 0 255 275 0 275 0 0 -255z m660 0 l0 -255
-275 0 -275 0 0 255 0 255 275 0 275 0 0 -255z m660 0 l0 -255 -275 0 -275 0
0 255 0 255 275 0 275 0 0 -255z m662 4 c2 -138 1 -253 -1 -255 -2 -2 -127 -4
-278 -4 l-273 0 0 255 0 255 275 0 274 0 3 -251z m668 -4 l0 -255 -280 0 -280
0 0 255 0 255 280 0 280 0 0 -255z m660 0 l0 -255 -280 0 -280 0 0 255 0 255
280 0 280 0 0 -255z m660 0 l0 -255 -280 0 -280 0 0 255 0 255 280 0 280 0 0
-255z m660 0 l0 -255 -280 0 -280 0 0 255 0 255 280 0 280 0 0 -255z m660 84
l0 -171 -67 -84 -67 -84 -210 2 c-116 2 -210 6 -208 11 1 4 2 117 2 252 l0
245 275 0 275 0 0 -171z m214 99 c-31 -40 -66 -85 -77 -100 -12 -16 -23 -28
-26 -28 -3 0 -5 45 -3 100 l3 100 80 0 80 0 -57 -72z m2426 -183 l0 -255 -185
0 c-102 0 -185 2 -185 5 0 6 109 464 116 488 5 15 20 17 130 17 l124 0 0 -255z
m680 0 l0 -255 -285 0 -285 0 0 255 0 255 285 0 285 0 0 -255z m580 0 l0 -255
-235 0 -235 0 0 255 0 255 235 0 235 0 0 -255z m-2586 -126 c3 -17 6 -53 6
-80 l0 -49 -75 0 c-41 0 -75 2 -75 5 0 9 123 155 130 155 4 0 10 -14 14 -31z
m-8584 -484 l0 -255 -235 0 -235 0 0 255 0 255 235 0 235 0 0 -255z m660 0 l0
-255 -275 0 -275 0 0 255 0 255 275 0 275 0 0 -255z m660 0 l0 -255 -275 0
-275 0 0 255 0 255 275 0 275 0 0 -255z m660 0 l0 -255 -275 0 -275 0 0 255 0
255 275 0 275 0 0 -255z m660 0 l0 -255 -275 0 -275 0 0 255 0 255 275 0 275
0 0 -255z m660 0 l0 -255 -275 0 -275 0 0 255 0 255 275 0 275 0 0 -255z m660
0 l0 -255 -275 0 -275 0 0 255 0 255 275 0 275 0 0 -255z m670 0 l0 -255 -280
0 -280 0 0 255 0 255 280 0 280 0 0 -255z m660 0 l0 -255 -280 0 -280 0 0 255
0 255 280 0 280 0 0 -255z m660 0 l0 -255 -280 0 -280 0 0 255 0 255 280 0
280 0 0 -255z m660 0 l0 -255 -280 0 -280 0 0 255 0 255 280 0 280 0 0 -255z
m429 235 c-31 -44 -314 -399 -319 -400 -3 0 -4 94 -2 210 l3 210 166 0 c162 0
165 0 152 -20z m1551 -235 l0 -255 -275 0 -275 0 0 68 1 67 155 188 155 187
120 0 119 0 0 -255z m1320 0 l0 -255 -259 0 -259 0 24 98 c12 53 40 168 60
255 l38 157 198 0 198 0 0 -255z m680 0 l0 -255 -285 0 -285 0 0 255 0 255
285 0 285 0 0 -255z m580 0 l0 -255 -235 0 -235 0 0 255 0 255 235 0 235 0 0
-255z m-2370 -252 c0 -2 -22 -3 -50 -3 l-50 0 1 168 0 167 50 -165 c27 -90 49
-166 49 -167z m-8800 -358 l0 -255 -235 0 -235 0 0 255 0 255 235 0 235 0 0
-255z m660 0 l0 -255 -275 0 -275 0 0 255 0 255 275 0 275 0 0 -255z m660 0
l0 -255 -275 0 -275 0 0 255 0 255 275 0 275 0 0 -255z m660 0 l0 -255 -275 0
-275 0 0 255 0 255 275 0 275 0 0 -255z m660 0 l0 -255 -275 0 -275 0 0 255 0
255 275 0 275 0 0 -255z m660 0 l0 -255 -275 0 -275 0 0 255 0 255 275 0 275
0 0 -255z m663 3 l-2 -253 -276 -3 -275 -2 0 255 0 255 278 0 277 0 -2 -252z
m665 0 l-3 -253 -277 -3 -278 -2 0 255 0 255 280 0 280 0 -2 -252z m662 -3 l0
-255 -280 0 -280 0 0 255 0 255 280 0 280 0 0 -255z m660 0 l0 -255 -280 0
-280 0 0 255 0 255 280 0 280 0 0 -255z m418 3 l-201 -253 -56 0 -56 0 -3 253
-2 252 260 0 260 0 -202 -252z m1562 -3 l0 -255 -245 0 c-135 0 -245 2 -245 5
0 3 92 118 206 255 205 250 205 250 245 250 l39 0 0 -255z m660 0 l0 -255
-275 0 -275 0 0 255 0 255 275 0 275 0 0 -255z m311 21 c37 -127 70 -240 74
-253 l5 -23 -140 0 -140 0 0 255 0 256 66 -3 67 -3 68 -229z m1009 -21 l0
-255 -275 0 -275 0 0 239 c0 132 3 246 6 255 5 14 39 16 275 16 l269 0 0 -255z
m680 0 l0 -255 -285 0 -285 0 0 255 0 255 285 0 285 0 0 -255z m580 0 l0 -255
-235 0 -235 0 0 255 0 255 235 0 235 0 0 -255z m-11170 -610 l0 -255 -235 0
-235 0 0 255 0 255 235 0 235 0 0 -255z m660 0 l0 -255 -275 0 -275 0 0 255 0
255 275 0 275 0 0 -255z m660 0 l0 -255 -275 0 -275 0 0 255 0 255 275 0 275
0 0 -255z m660 0 l0 -255 -275 0 -275 0 0 255 0 255 275 0 275 0 0 -255z m660
0 l0 -255 -275 0 -275 0 0 255 0 255 275 0 275 0 0 -255z m660 0 l0 -255 -275
0 -275 0 0 255 0 255 275 0 275 0 0 -255z m663 3 l-2 -253 -276 -3 -275 -2 0
255 0 255 278 0 277 0 -2 -252z m665 0 l-3 -253 -277 -3 -278 -2 0 255 0 255
280 0 280 0 -2 -252z m660 0 l-3 -253 -277 -3 -278 -2 0 255 0 255 280 0 280
0 -2 -252z m662 168 l0 -83 -137 -172 -137 -172 -141 3 -140 3 -3 253 -2 252
280 0 280 0 0 -84z m130 80 c0 -2 -7 -9 -15 -16 -12 -10 -15 -10 -15 4 0 9 7
16 15 16 8 0 15 -2 15 -4z m1850 -251 l0 -255 -275 0 -275 0 0 255 0 255 275
0 275 0 0 -255z m660 0 l0 -255 -275 0 -275 0 0 255 0 255 275 0 275 0 0 -255z
m478 63 c30 -103 58 -185 62 -183 4 3 10 19 14 37 3 18 22 102 43 186 54 226
63 212 63 -103 l0 -255 -275 0 -275 0 0 255 0 256 156 -3 157 -3 55 -187z
m842 -63 l0 -255 -275 0 -275 0 0 255 0 255 275 0 275 0 0 -255z m680 0 l0
-255 -285 0 -285 0 0 255 0 255 285 0 285 0 0 -255z m580 0 l0 -255 -235 0
-235 0 0 255 0 255 235 0 235 0 0 -255z m-3900 -55 l0 -200 -165 0 c-91 0
-165 2 -165 5 0 3 62 81 138 173 76 92 146 179 157 194 11 15 23 28 28 28 4 0
7 -90 7 -200z m-7270 -555 l0 -255 -235 0 -235 0 0 255 0 255 235 0 235 0 0
-255z m660 0 l0 -255 -275 0 -275 0 0 255 0 255 275 0 275 0 0 -255z m660 0
l0 -255 -275 0 -275 0 0 255 0 255 275 0 275 0 0 -255z m660 0 l0 -255 -275 0
-275 0 0 255 0 255 275 0 275 0 0 -255z m660 0 l0 -255 -275 0 -275 0 0 255 0
255 275 0 275 0 0 -255z m660 21 c0 -129 3 -243 6 -253 5 -12 4 -15 -3 -8 -11
11 -193 451 -193 466 0 23 -27 -3 -184 -176 -93 -102 -170 -185 -172 -185 -2
0 -4 88 -4 195 l0 195 275 0 275 0 0 -234z m663 -18 l-2 -253 -276 -3 -275 -2
0 255 0 255 278 0 277 0 -2 -252z m665 0 l-3 -253 -277 -3 -278 -2 0 255 0
255 280 0 280 0 -2 -252z m662 59 l0 -192 -51 -63 -50 -62 -227 2 -227 3 -3
253 -2 252 280 0 280 0 0 -193z m300 188 c0 -7 -191 -245 -196 -245 -2 0 -4
56 -4 125 l0 125 100 0 c55 0 100 -2 100 -5z m1680 -250 l0 -255 -276 2 -275
3 0 173 0 173 66 79 67 80 209 0 209 0 0 -255z m660 0 l0 -255 -275 0 -275 0
0 255 0 255 275 0 275 0 0 -255z m660 0 l0 -255 -275 0 -275 0 0 255 0 255
275 0 275 0 0 -255z m660 0 l0 -255 -275 0 -275 0 0 255 0 255 275 0 275 0 0
-255z m660 0 l0 -255 -275 0 -275 0 0 255 0 255 275 0 275 0 0 -255z m680 0
l0 -255 -285 0 -285 0 0 255 0 255 285 0 285 0 0 -255z m580 0 l0 -255 -235 0
-235 0 0 255 0 255 235 0 235 0 0 -255z m-4560 -150 l0 -105 -85 0 c-47 0 -85
2 -85 5 0 6 162 205 167 205 2 0 3 -47 3 -105z m-6610 -460 l0 -255 -235 0
-235 0 0 255 0 255 235 0 235 0 0 -255z m660 0 l0 -255 -275 0 -275 0 0 255 0
255 275 0 275 0 0 -255z m660 0 l0 -255 -275 0 -275 0 0 255 0 255 275 0 275
0 0 -255z m660 0 l0 -255 -275 0 -275 0 0 255 0 255 275 0 275 0 0 -255z m554
233 c-94 -106 -436 -478 -440 -478 -2 0 -4 113 -4 250 l0 250 232 0 231 0 -19
-22z m1429 -230 l-2 -253 -200 -3 -200 -2 -15 27 c-7 16 -41 95 -75 177 -57
139 -61 154 -61 227 l0 79 278 0 277 0 -2 -252z m665 0 l-3 -253 -275 0 -275
0 -3 253 -2 252 280 0 280 0 -2 -252z m325 54 c-87 -109 -172 -216 -190 -238
l-32 -39 -1 238 0 237 190 0 190 0 -157 -198z m1655 -54 l-3 -253 -275 0 -275
0 -3 70 -2 70 150 183 151 182 130 0 129 0 -2 -252z m660 0 l-3 -253 -273 0
-273 0 -2 253 -2 252 278 0 277 0 -2 -252z m660 0 l-3 -253 -272 -3 -273 -2 0
255 0 255 275 0 275 0 -2 -252z m660 0 l-3 -253 -272 -3 -273 -2 0 255 0 255
275 0 275 0 -2 -252z m662 -3 l0 -255 -275 0 -275 0 0 255 0 255 275 0 275 0
0 -255z m660 0 l0 -255 -275 0 -275 0 0 255 0 255 275 0 275 0 0 -255z m680 0
l0 -255 -285 0 -285 0 0 255 0 255 285 0 285 0 0 -255z m580 0 l0 -255 -235 0
-235 0 0 255 0 255 235 0 235 0 0 -255z m-11170 -605 l0 -255 -235 0 -235 0 0
255 0 255 235 0 235 0 0 -255z m660 3 l0 -258 -275 0 -275 0 0 252 0 253 273
3 c149 1 273 3 275 5 1 1 2 -114 2 -255z m660 0 l0 -258 -272 2 -273 2 -3 251
-2 250 272 3 c150 1 274 3 276 5 1 1 2 -114 2 -255z m463 11 c-109 -119 -207
-228 -218 -241 -18 -21 -30 -25 -75 -26 l-55 0 -3 251 -2 252 272 2 c212 2
274 0 276 -10 2 -6 -86 -109 -195 -228z m2178 -15 l0 -251 -77 0 c-54 0 -79 4
-85 14 -12 21 -199 478 -199 486 0 4 81 6 180 5 l181 -2 0 -252z m659 251 c0
-3 -89 -117 -198 -254 l-198 -248 -74 0 -75 0 -3 243 c-1 134 -1 248 2 254 3
10 546 15 546 5z m1325 -249 l0 -251 -253 -3 c-138 -1 -252 -1 -252 1 0 3 309
380 370 452 45 52 50 55 91 54 l44 -1 0 -252z m660 -1 l0 -251 -275 0 -275 0
-3 243 c-1 133 -1 247 2 253 2 6 99 9 277 8 l274 -2 0 -251z m660 0 l0 -251
-273 0 -273 0 0 251 c1 137 1 251 1 253 0 1 123 1 272 0 l273 -2 0 -251z m660
0 l0 -251 -273 -2 -272 -2 0 255 0 255 272 -2 273 -2 0 -251z m660 0 l0 -251
-273 -2 -272 -2 0 255 0 255 272 -2 273 -2 0 -251z m663 -1 l-3 -250 -273 -2
-272 -2 0 255 0 255 275 -3 275 -3 -2 -250z m660 0 l-3 -250 -273 -2 -272 -2
0 255 0 255 275 -3 275 -3 -2 -250z m682 1 l0 -255 -285 0 -285 0 0 255 0 255
285 0 285 0 0 -255z m578 -1 l-3 -249 -233 -3 -232 -2 0 255 0 255 235 -3 235
-3 -2 -250z m-8204 6 c59 -134 107 -247 107 -250 -1 -3 -72 -6 -158 -6 l-158
0 -3 196 -2 196 46 55 c26 30 49 54 53 54 3 0 55 -110 115 -245z m-324 -122
l0 -138 -125 0 c-69 0 -124 3 -122 7 3 8 240 268 244 268 2 0 3 -62 3 -137z
m-2640 -488 l0 -255 -235 0 -235 0 0 255 0 255 235 0 235 0 0 -255z m660 0 l0
-255 -275 0 -275 0 0 255 0 255 275 0 275 0 0 -255z m660 183 l0 -73 -167
-182 -166 -183 -109 0 -108 0 0 255 0 255 275 0 275 0 0 -72z m1320 -183 l0
-255 -275 0 -275 0 0 144 0 143 86 94 c129 141 100 129 295 129 l169 0 0 -255z
m572 50 c74 -169 88 -208 88 -252 l0 -53 -275 0 -275 0 0 248 c0 137 3 252 7
256 4 3 88 5 187 4 l179 -3 89 -200z m749 93 c0 -60 0 -112 -1 -118 0 -5 -4
-10 -9 -10 -8 0 -101 212 -101 232 0 5 25 8 56 6 l56 -3 -1 -107z m169 95 c-5
-10 -21 -31 -35 -48 l-25 -30 0 41 c0 48 4 54 42 54 25 0 27 -3 18 -17z m1818
-240 l2 -253 -280 0 -280 0 0 248 c0 137 3 252 7 255 4 4 128 6 277 5 l271 -3
3 -252z m660 0 l2 -253 -280 0 -280 0 0 248 c0 137 3 252 7 255 4 4 128 6 277
5 l271 -3 3 -252z m660 0 l2 -253 -277 0 -278 0 2 252 c2 139 3 254 3 256 0 1
123 1 273 0 l272 -3 3 -252z m660 0 l2 -253 -275 0 -275 0 0 255 0 255 273 -2
272 -3 3 -252z m660 0 l2 -253 -275 0 -275 0 0 255 0 255 273 -2 272 -3 3
-252z m660 0 l2 -253 -275 0 -275 0 0 255 0 255 273 -2 272 -3 3 -252z m662 2
l0 -255 -275 0 -275 0 0 255 0 255 275 0 275 0 0 -255z m680 0 l0 -255 -285 0
-285 0 0 255 0 255 285 0 285 0 0 -255z m580 0 l0 -255 -235 0 -235 0 0 255 0
255 235 0 235 0 0 -255z m-5880 -45 l0 -210 -175 0 -175 0 172 210 c95 116
173 210 175 210 2 0 3 -94 3 -210z m-3310 -130 l0 -80 -76 0 -76 0 72 80 c40
44 74 80 76 80 2 0 4 -36 4 -80z m-1980 -435 l0 -255 -235 0 -235 0 0 255 0
255 235 0 235 0 0 -255z m660 126 l0 -128 -116 -127 -116 -126 -159 0 -159 0
0 255 0 255 275 0 275 0 0 -129z m180 69 c-29 -33 -56 -63 -61 -66 -5 -3 -9
24 -9 60 l0 66 61 0 61 0 -52 -60z m1140 -195 l0 -255 -275 0 -275 0 0 89 0
89 152 166 152 166 123 0 123 0 0 -255z m660 0 l0 -255 -275 0 -275 0 0 255 0
255 275 0 275 0 0 -255z m660 0 l0 -255 -275 0 -275 0 0 255 0 255 275 0 275
0 0 -255z m1988 -2 l2 -253 -280 0 -280 0 0 176 0 177 37 46 c20 25 50 61 67
79 l30 32 211 -2 210 -3 3 -252z m660 0 l2 -253 -280 0 -280 0 0 248 c0 137 3
252 7 255 4 4 128 6 277 5 l271 -3 3 -252z m660 0 l2 -253 -280 0 -280 0 0
248 c0 137 3 252 7 255 4 4 128 6 277 5 l271 -3 3 -252z m662 2 l0 -255 -277
0 -278 0 2 252 c2 139 3 254 3 256 0 1 124 2 275 2 l275 0 0 -255z m660 0 l0
-255 -275 0 -275 0 0 255 0 255 275 0 275 0 0 -255z m660 0 l0 -255 -275 0
-275 0 0 255 0 255 275 0 275 0 0 -255z m660 0 l0 -255 -275 0 -275 0 0 255 0
255 275 0 275 0 0 -255z m660 0 l0 -255 -275 0 -275 0 0 255 0 255 275 0 275
0 0 -255z m680 0 l0 -255 -285 0 -285 0 0 255 0 255 285 0 285 0 0 -255z m580
0 l0 -255 -235 0 -235 0 0 255 0 255 235 0 235 0 0 -255z m-7740 174 c0 -5 41
-100 90 -211 50 -111 90 -206 90 -210 0 -4 -45 -8 -100 -8 l-100 0 0 226 c0
147 3 223 10 219 6 -3 10 -10 10 -16z m1200 -319 l0 -110 -95 0 -96 0 91 110
c51 61 93 110 96 110 2 0 4 -49 4 -110z m-3310 -85 c0 -20 -5 -25 -27 -25
l-26 0 23 25 c13 14 25 25 27 25 2 0 3 -11 3 -25z m-1320 -312 l-1 -188 -63
-67 -64 -68 -171 0 -171 0 0 255 0 255 235 0 235 0 0 -187z m330 181 c0 -5
-28 -37 -167 -184 l-53 -55 0 123 0 122 110 0 c61 0 110 -3 110 -6z m990 -249
l0 -255 -275 0 -275 0 0 35 c0 33 19 56 202 255 l202 220 73 0 73 0 0 -255z
m660 0 l0 -255 -275 0 -275 0 0 255 0 255 275 0 275 0 0 -255z m660 0 l0 -255
-275 0 -275 0 0 255 0 255 275 0 275 0 0 -255z m660 0 l0 -255 -275 0 -275 0
0 255 0 255 275 0 275 0 0 -255z m475 -2 l112 -253 -238 0 -239 0 0 255 0 256
127 -3 126 -3 112 -252z m853 0 l2 -253 -280 0 -280 0 0 79 0 80 117 143 c64
79 130 158 147 176 l30 33 131 -3 130 -3 3 -252z m660 0 l2 -253 -280 0 -280
0 0 255 0 255 278 -2 277 -3 3 -252z m662 2 l0 -255 -280 0 -280 0 0 248 c0
137 3 252 7 255 3 4 129 7 280 7 l273 0 0 -255z m660 0 l0 -255 -280 0 -280 0
0 248 c0 137 3 252 7 255 3 4 129 7 280 7 l273 0 0 -255z m660 0 l0 -255 -277
0 -278 0 2 252 c2 139 3 254 3 256 0 1 124 2 275 2 l275 0 0 -255z m660 0 l0
-255 -275 0 -275 0 0 255 0 255 275 0 275 0 0 -255z m660 0 l0 -255 -275 0
-275 0 0 255 0 255 275 0 275 0 0 -255z m660 0 l0 -255 -275 0 -275 0 0 255 0
255 275 0 275 0 0 -255z m660 0 l0 -255 -275 0 -275 0 0 255 0 255 275 0 275
0 0 -255z m680 0 l0 -255 -285 0 -285 0 0 255 0 255 285 0 285 0 0 -255z m580
0 l0 -255 -235 0 -235 0 0 255 0 255 235 0 235 0 0 -255z m-7200 -245 c0 -5
-7 -10 -16 -10 -8 0 -12 5 -9 10 3 6 10 10 16 10 5 0 9 -4 9 -10z m-4200 -116
c0 -4 -39 -49 -87 -102 -49 -52 -102 -111 -120 -131 l-32 -36 -1 138 0 137
120 0 c66 0 120 -3 120 -6z m890 -249 l0 -255 -256 0 -256 0 38 43 c271 302
430 467 451 467 l23 0 0 -255z m660 0 l0 -255 -275 0 -275 0 0 255 0 255 275
0 275 0 0 -255z m660 0 l0 -255 -275 0 -275 0 0 255 0 255 275 0 275 0 0 -255z
m660 0 l0 -255 -275 0 -275 0 0 255 0 255 275 0 275 0 0 -255z m660 0 l0 -255
-275 0 -275 0 0 255 0 255 275 0 275 0 0 -255z m663 -3 l2 -252 -277 0 -278 0
0 255 0 255 275 -2 276 -3 2 -253z m665 1 l2 -253 -280 0 -280 0 0 255 0 255
278 -2 277 -3 3 -252z m662 2 l0 -255 -280 0 -280 0 0 255 0 255 280 0 280 0
0 -255z m660 0 l0 -255 -280 0 -280 0 0 255 0 255 280 0 280 0 0 -255z m660 0
l0 -255 -280 0 -280 0 0 248 c0 137 3 252 7 255 3 4 129 7 280 7 l273 0 0
-255z m660 0 l0 -255 -277 0 -278 0 2 252 c2 139 3 254 3 256 0 1 124 2 275 2
l275 0 0 -255z m660 0 l0 -255 -275 0 -275 0 0 255 0 255 275 0 275 0 0 -255z
m660 0 l0 -255 -275 0 -275 0 0 255 0 255 275 0 275 0 0 -255z m660 0 l0 -255
-275 0 -275 0 0 255 0 255 275 0 275 0 0 -255z m660 0 l0 -255 -275 0 -275 0
0 255 0 255 275 0 275 0 0 -255z m680 0 l0 -255 -285 0 -285 0 0 255 0 255
285 0 285 0 0 -255z m580 0 l0 -255 -235 0 -235 0 0 255 0 255 235 0 235 0 0
-255z m-10510 -490 l0 -135 -275 0 -275 0 0 135 0 135 275 0 275 0 0 -135z
m660 0 l0 -135 -275 0 -275 0 0 135 0 135 275 0 275 0 0 -135z m660 0 l0 -135
-275 0 -275 0 0 135 0 135 275 0 275 0 0 -135z m660 0 l0 -135 -272 2 -273 3
-3 133 -3 132 276 0 275 0 0 -135z m660 0 l0 -135 -272 2 -273 3 -3 133 -3
132 276 0 275 0 0 -135z m662 4 c2 -83 -1 -133 -7 -135 -6 -3 -129 -3 -275 -2
l-265 3 -3 133 -3 132 275 0 275 0 3 -131z m666 -1 l-3 -133 -275 0 -275 0 -3
133 -3 132 281 0 281 0 -3 -132z m660 0 l-3 -133 -275 0 -275 0 -3 133 -3 132
281 0 281 0 -3 -132z m660 0 l-3 -133 -275 0 -275 0 -3 133 -3 132 281 0 281
0 -3 -132z m660 0 l-3 -133 -275 0 -275 0 -3 133 -3 132 281 0 281 0 -3 -132z
m660 0 l-3 -133 -265 -3 c-146 -1 -269 -1 -275 2 -6 2 -9 52 -7 135 l3 131
275 0 275 0 -3 -132z m660 0 l-3 -133 -272 -3 -273 -2 0 135 0 135 275 0 276
0 -3 -132z m660 0 l-3 -133 -272 -3 -273 -2 0 135 0 135 275 0 276 0 -3 -132z
m662 -3 l0 -135 -275 0 -275 0 0 135 0 135 275 0 275 0 0 -135z m660 0 l0
-135 -275 0 -275 0 0 135 0 135 275 0 275 0 0 -135z m680 0 l0 -135 -285 0
-285 0 0 135 0 135 285 0 285 0 0 -135z m580 0 l0 -135 -235 0 -235 0 0 135 0
135 235 0 235 0 0 -135z m-11170 -30 l0 -105 -91 0 c-54 0 -89 4 -87 10 3 9
170 199 176 200 1 0 2 -47 2 -105z"/>
</g>
</svg>
