<?xml version="1.0" standalone="no"?>
<!DOCTYPE svg PUBLIC "-//W3C//DTD SVG 20010904//EN"
 "http://www.w3.org/TR/2001/REC-SVG-20010904/DTD/svg10.dtd">
<svg version="1.0" xmlns="http://www.w3.org/2000/svg"
 width="1280.000000pt" height="872.000000pt" viewBox="0 0 1280.000000 872.000000"
 preserveAspectRatio="xMidYMid meet">
<metadata>
Created by potrace 1.15, written by Peter Selinger 2001-2017
</metadata>
<g transform="translate(0.000000,872.000000) scale(0.100000,-0.100000)"
fill="#000000" stroke="none">
<path d="M10330 8644 c-275 -139 -570 -259 -1250 -511 -418 -154 -729 -276
-923 -362 -163 -72 -417 -199 -417 -208 0 -3 42 -49 93 -102 50 -53 183 -192
295 -308 l202 -211 -132 -94 c-1591 -1135 -3704 -2078 -5429 -2423 -1141 -228
-2025 -203 -2598 72 -62 30 -114 53 -116 51 -10 -13 -37 -157 -46 -244 -18
-170 10 -338 82 -492 171 -368 585 -621 1179 -721 227 -39 329 -46 645 -45
392 0 659 28 1076 110 1223 240 2401 785 3639 1684 625 454 1331 1064 1855
1602 l167 171 349 -349 c191 -191 350 -346 352 -344 2 3 252 624 556 1380 305
756 558 1383 563 1393 5 10 8 20 6 22 -2 1 -68 -30 -148 -71z"/>
<path d="M11995 6921 c-40 -17 -59 -50 -63 -111 -5 -71 2 -104 28 -130 29 -29
74 -25 112 9 32 29 33 32 33 110 0 67 -3 84 -20 100 -24 24 -63 33 -90 22z
m44 -55 c7 -9 11 -41 9 -83 -3 -65 -4 -68 -28 -68 -21 0 -26 6 -32 40 -6 37
-2 99 9 118 7 12 30 8 42 -7z"/>
<path d="M12185 6916 c-41 -18 -55 -53 -55 -137 0 -61 3 -73 25 -94 74 -75
169 22 149 152 -11 75 -58 106 -119 79z m55 -55 c11 -21 14 -110 4 -135 -10
-25 -43 -19 -54 10 -22 57 -7 144 25 144 8 0 19 -9 25 -19z"/>
<path d="M12445 6808 c-49 -68 -92 -129 -98 -135 -7 -10 -4 -13 11 -13 15 0
45 33 106 119 95 132 106 151 83 151 -8 0 -54 -55 -102 -122z"/>
<path d="M11783 6899 c-37 -23 -49 -68 -14 -49 11 5 22 10 25 10 3 0 6 -33 6
-74 0 -70 -1 -75 -22 -78 -13 -2 -24 -11 -26 -21 -3 -16 4 -18 75 -15 65 3 78
6 81 21 3 12 -3 17 -22 17 l-26 0 0 105 c0 102 -1 105 -22 105 -13 0 -38 -10
-55 -21z"/>
<path d="M12336 6898 c-18 -26 -20 -61 -6 -89 15 -28 74 -26 94 3 19 27 21 79
4 96 -21 21 -75 15 -92 -10z m60 -32 c6 -26 -1 -46 -17 -46 -5 0 -9 16 -9 35
0 40 17 47 26 11z"/>
<path d="M12490 6780 c-28 -28 -27 -84 2 -104 31 -22 45 -20 73 9 45 44 25
115 -31 115 -13 0 -33 -9 -44 -20z m58 -59 c-5 -25 -27 -23 -34 3 -9 36 5 54
23 30 7 -10 12 -25 11 -33z"/>
<path d="M11842 6357 l-102 -102 0 -3128 0 -3127 308 0 307 0 108 108 107 107
0 3123 0 3122 -313 0 -312 0 -103 -103z"/>
<path d="M10671 6294 c-25 -21 -31 -34 -31 -64 0 -53 22 -73 77 -68 48 4 56
-9 24 -41 -15 -15 -28 -19 -56 -14 -34 6 -37 4 -33 -18 2 -20 10 -25 40 -27
75 -6 118 46 118 144 0 47 -5 68 -21 88 -28 35 -76 35 -118 0z m67 -22 c21
-14 20 -66 -1 -70 -37 -8 -62 39 -35 66 14 14 19 14 36 4z"/>
<path d="M10877 6299 c-51 -40 -60 -168 -14 -216 28 -31 78 -30 114 1 25 22
28 31 31 103 3 68 1 81 -18 106 -27 33 -75 36 -113 6z m80 -82 c3 -20 2 -52
-1 -71 -6 -29 -11 -36 -30 -36 -30 0 -36 16 -36 90 0 46 4 61 18 69 23 13 41
-5 49 -52z"/>
<path d="M11050 6300 c-29 -29 -27 -85 4 -105 28 -19 69 -7 85 24 37 69 -35
135 -89 81z m50 -51 c0 -20 -4 -29 -12 -27 -15 5 -22 33 -14 54 9 24 26 6 26
-27z"/>
<path d="M11150 6203 c-108 -149 -105 -143 -82 -143 12 0 47 40 103 118 107
146 104 142 82 142 -12 0 -48 -41 -103 -117z"/>
<path d="M11215 6188 c-29 -16 -35 -28 -35 -70 0 -39 19 -58 58 -58 49 0 78
97 37 126 -23 17 -34 17 -60 2z m35 -64 c0 -45 -24 -42 -28 4 -2 24 1 32 12
32 12 0 16 -10 16 -36z"/>
<path d="M10674 5748 l-104 -102 0 -2823 0 -2823 308 0 307 0 108 108 107 107
-2 2815 -3 2815 -309 3 -309 2 -103 -102z"/>
<path d="M10082 5712 c-20 -17 -182 -237 -182 -247 0 -3 8 -5 18 -5 16 0 36
25 166 207 37 51 36 78 -2 45z"/>
<path d="M9512 5700 c-26 -25 -29 -72 -6 -95 15 -15 15 -18 -5 -39 -48 -51
-13 -106 67 -106 77 0 120 72 71 121 -19 19 -19 22 -5 38 23 25 21 78 -3 91
-33 17 -95 12 -119 -10z m83 -30 c7 -12 -3 -50 -14 -50 -19 0 -44 28 -38 44 7
18 42 22 52 6z m-11 -113 c21 -16 18 -50 -5 -55 -27 -5 -51 26 -39 49 13 22
20 24 44 6z"/>
<path d="M9713 5696 c-25 -22 -28 -31 -31 -103 -3 -68 -1 -81 18 -105 41 -53
124 -32 150 38 24 63 4 173 -35 188 -34 13 -75 5 -102 -18z m71 -32 c21 -20
22 -136 3 -153 -36 -30 -73 78 -48 142 12 31 23 34 45 11z"/>
<path d="M9895 5700 c-21 -24 -25 -84 -7 -102 18 -18 73 -14 88 7 17 23 18 87
2 103 -19 19 -63 14 -83 -8z m53 -49 c3 -24 0 -32 -10 -29 -7 3 -14 19 -16 37
-3 24 0 32 10 29 7 -3 14 -19 16 -37z"/>
<path d="M10053 5585 c-51 -36 -32 -125 26 -125 39 0 61 28 61 78 0 58 -41 80
-87 47z m42 -58 c0 -39 -19 -38 -23 2 -3 24 0 32 10 29 7 -3 13 -17 13 -31z"/>
<path d="M9492 5157 l-102 -102 0 -2528 0 -2527 308 0 308 0 107 107 107 107
0 2523 0 2523 -313 0 -312 0 -103 -103z"/>
<path d="M8520 5092 c-48 -48 -53 -169 -9 -213 12 -12 33 -19 58 -19 32 0 44
6 65 31 23 27 26 39 26 105 0 66 -3 78 -25 99 -34 35 -78 33 -115 -3z m80 -48
c30 -78 -15 -190 -50 -125 -11 22 -14 134 -3 144 15 16 44 6 53 -19z"/>
<path d="M8706 5099 c-48 -38 -28 -119 29 -119 28 0 65 43 65 76 0 26 -32 64
-54 64 -7 0 -25 -9 -40 -21z m46 -36 c2 -10 2 -26 0 -36 -6 -25 -32 -2 -32 29
0 28 27 33 32 7z"/>
<path d="M8796 4993 c-89 -121 -106 -155 -68 -134 16 9 192 242 192 255 0 3
-7 6 -15 6 -8 0 -58 -57 -109 -127z"/>
<path d="M8292 5088 c3 -20 10 -23 55 -26 l52 -3 -35 -77 c-59 -127 -58 -122
-25 -122 27 0 31 7 75 108 25 59 46 115 46 125 0 15 -11 17 -86 17 -83 0 -85
-1 -82 -22z"/>
<path d="M8847 4972 c-20 -22 -22 -83 -5 -100 17 -17 64 -15 82 4 23 22 30 62
17 90 -13 30 -69 34 -94 6z m53 -48 c0 -45 -24 -42 -28 4 -2 24 1 32 12 32 12
0 16 -10 16 -36z"/>
<path d="M8322 4537 l-102 -102 0 -2218 0 -2217 312 0 313 0 102 102 103 103
0 2217 0 2218 -313 0 -312 0 -103 -103z"/>
<path d="M7739 4503 c-24 -32 -67 -91 -97 -131 -52 -72 -59 -91 -28 -79 15 6
182 224 193 252 3 9 -1 15 -11 15 -8 0 -34 -26 -57 -57z"/>
<path d="M7218 4521 c-32 -29 -33 -32 -33 -110 0 -95 13 -116 75 -116 56 0 90
35 90 92 0 54 -31 79 -85 69 -39 -8 -43 -1 -19 32 13 19 24 23 53 20 31 -3 36
0 39 20 3 20 -1 22 -42 22 -36 0 -52 -6 -78 -29z m77 -146 c0 -25 -4 -30 -24
-30 -18 0 -26 7 -32 27 -8 33 -2 40 31 36 20 -2 25 -8 25 -33z"/>
<path d="M7405 4526 c-28 -28 -39 -79 -32 -144 11 -98 112 -124 160 -42 25 42
23 150 -4 184 -28 35 -89 37 -124 2z m76 -32 c8 -9 13 -41 14 -75 0 -65 -15
-90 -43 -73 -12 8 -18 28 -20 74 -2 35 -1 69 2 76 7 19 31 18 47 -2z"/>
<path d="M7587 4532 c-20 -22 -22 -83 -5 -100 15 -15 53 -16 78 -2 24 13 36
71 21 99 -15 27 -71 29 -94 3z m53 -48 c0 -45 -24 -42 -28 4 -2 24 1 32 12 32
12 0 16 -10 16 -36z"/>
<path d="M7742 4414 c-16 -11 -22 -25 -22 -52 0 -49 12 -65 49 -65 38 0 58 16
66 54 14 62 -42 99 -93 63z m48 -55 c0 -20 -4 -29 -12 -27 -15 5 -22 33 -14
54 9 24 26 6 26 -27z"/>
<path d="M7142 3977 l-102 -102 0 -1938 0 -1937 312 0 313 0 102 102 103 103
0 1937 0 1938 -313 0 -312 0 -103 -103z"/>
<path d="M6649 3939 c-15 -8 -189 -242 -189 -253 0 -4 8 -6 18 -6 10 0 42 35
79 88 34 48 76 106 93 129 30 41 30 60 -1 42z"/>
<path d="M6067 3933 c-4 -3 -7 -35 -7 -70 l0 -63 34 0 c31 0 66 -20 66 -38 -1
-30 -33 -41 -83 -28 -27 6 -28 5 -25 -21 3 -24 8 -28 37 -31 74 -7 121 27 121
88 0 45 -22 67 -70 72 -27 2 -35 7 -35 23 0 16 8 21 45 25 37 4 46 9 48 28 3
21 0 22 -61 22 -35 0 -67 -3 -70 -7z"/>
<path d="M6273 3916 c-25 -22 -28 -31 -31 -103 -3 -68 -1 -81 18 -105 45 -58
138 -26 154 53 15 75 -1 151 -34 169 -32 17 -78 11 -107 -14z m71 -32 c11 -11
16 -34 16 -78 0 -72 -14 -95 -46 -72 -25 18 -28 141 -4 156 19 12 16 13 34 -6z"/>
<path d="M6450 3913 c-39 -50 -6 -121 50 -108 14 3 31 13 38 22 15 21 16 85 0
101 -22 22 -65 14 -88 -15z m58 -41 c2 -24 -1 -32 -12 -32 -12 0 -16 10 -16
36 0 45 24 42 28 -4z"/>
<path d="M6605 3795 c-44 -43 -22 -115 35 -115 56 0 84 92 38 124 -31 22 -45
20 -73 -9z m50 -48 c0 -39 -19 -38 -23 2 -3 24 0 32 10 29 7 -3 13 -17 13 -31z"/>
<path d="M5972 3357 l-102 -102 0 -1628 0 -1627 313 0 312 0 103 103 102 102
0 1628 0 1627 -313 0 -312 0 -103 -103z"/>
<path d="M4873 3333 c-21 -14 -93 -152 -93 -178 0 -23 3 -25 50 -25 47 0 50
-2 50 -26 0 -22 4 -25 27 -22 18 2 29 10 31 22 3 11 10 26 18 34 18 17 18 29
-1 39 -10 6 -15 31 -17 83 -3 72 -4 75 -28 78 -14 1 -30 -1 -37 -5z m7 -108
c0 -41 -2 -45 -25 -45 -14 0 -25 3 -25 6 0 8 43 84 47 84 2 0 3 -20 3 -45z"/>
<path d="M5015 3316 c-13 -13 -27 -40 -31 -60 -10 -55 1 -133 21 -156 20 -22
74 -27 107 -9 62 33 64 219 3 243 -35 13 -76 6 -100 -18z m79 -42 c3 -9 6 -45
6 -80 0 -50 -4 -66 -16 -71 -34 -13 -48 27 -45 130 1 32 4 37 25 37 13 0 27
-7 30 -16z"/>
<path d="M5202 3324 c-17 -12 -22 -25 -22 -60 0 -38 4 -46 26 -56 21 -10 31
-9 52 3 22 12 28 23 30 58 2 23 -2 49 -9 57 -15 18 -49 18 -77 -2z m48 -55 c0
-19 -5 -29 -15 -29 -15 0 -22 50 -9 63 12 12 24 -4 24 -34z"/>
<path d="M5296 3220 c-89 -123 -105 -150 -89 -150 22 0 48 32 192 238 21 31
22 32 3 32 -14 0 -47 -37 -106 -120z"/>
<path d="M5342 3197 c-21 -25 -25 -66 -8 -92 20 -30 65 -34 89 -7 20 22 22 83
5 100 -16 16 -73 15 -86 -1z m56 -56 c3 -24 0 -32 -10 -29 -7 3 -14 19 -16 37
-3 24 0 32 10 29 7 -3 14 -19 16 -37z"/>
<path d="M4797 2772 l-107 -107 0 -1333 0 -1332 313 0 312 0 103 103 102 102
0 1338 0 1337 -308 0 -307 0 -108 -108z"/>
<path d="M3633 2725 c-21 -9 -33 -21 -33 -34 0 -17 3 -18 29 -8 38 14 63 3 59
-25 -2 -17 -11 -24 -33 -26 -29 -4 -48 -19 -39 -33 2 -4 19 -10 38 -13 23 -4
37 -14 41 -27 11 -33 -9 -45 -55 -32 -43 11 -50 9 -50 -18 0 -42 118 -41 153
2 23 28 22 74 -2 91 -17 12 -17 16 -5 33 47 63 -25 126 -103 90z"/>
<path d="M3833 2721 c-38 -24 -48 -54 -47 -133 2 -78 22 -108 73 -108 53 0 69
8 85 39 30 60 27 164 -6 197 -24 24 -70 26 -105 5z m67 -50 c5 -11 10 -41 10
-66 0 -52 -14 -85 -35 -85 -8 0 -19 9 -25 19 -11 21 -14 110 -4 135 8 22 41
20 54 -3z"/>
<path d="M4101 2615 c-86 -117 -102 -145 -83 -145 15 0 30 17 98 110 123 168
118 160 96 160 -14 0 -48 -38 -111 -125z"/>
<path d="M3996 2708 c-49 -69 26 -146 84 -88 22 22 27 79 8 98 -21 21 -75 15
-92 -10z m60 -34 c9 -34 -10 -53 -25 -26 -11 21 -5 52 10 52 5 0 12 -12 15
-26z"/>
<path d="M4150 2590 c-22 -22 -27 -79 -8 -98 7 -7 27 -12 44 -12 52 0 81 60
54 111 -14 25 -64 25 -90 -1z m56 -34 c6 -26 -1 -46 -16 -46 -12 0 -24 46 -15
59 11 18 24 12 31 -13z"/>
<path d="M3622 2157 l-102 -102 0 -1028 0 -1027 312 0 313 0 102 102 103 103
0 1027 0 1028 -313 0 -312 0 -103 -103z"/>
<path d="M3023 2093 c-33 -42 -146 -201 -157 -220 -5 -9 -1 -13 11 -13 12 0
50 45 111 129 50 71 92 131 92 135 0 19 -32 1 -57 -31z"/>
<path d="M2472 2104 c-36 -25 -29 -46 13 -38 75 14 78 -35 8 -115 -64 -73 -58
-86 42 -86 75 0 80 1 83 23 3 20 0 22 -47 22 l-51 0 45 55 c50 62 59 109 27
138 -24 21 -90 22 -120 1z"/>
<path d="M2687 2109 c-58 -34 -63 -209 -7 -239 25 -13 66 -13 92 1 29 16 48
70 48 137 0 77 -24 112 -78 112 -20 0 -45 -5 -55 -11z m61 -41 c15 -20 23 -89
14 -123 -9 -32 -39 -46 -53 -23 -10 15 -12 142 -2 151 10 11 30 8 41 -5z"/>
<path d="M2857 2102 c-20 -21 -23 -82 -5 -100 7 -7 27 -12 45 -12 28 0 36 5
50 36 16 32 16 38 2 62 -19 34 -67 42 -92 14z m51 -51 c3 -24 0 -32 -10 -29
-7 3 -14 19 -16 37 -3 24 0 32 10 29 7 -3 14 -19 16 -37z"/>
<path d="M3010 1982 c-16 -13 -22 -29 -22 -57 0 -59 43 -83 90 -49 30 21 32
98 3 114 -28 14 -46 13 -71 -8z m48 -54 c-2 -18 -7 -33 -13 -33 -5 0 -11 15
-13 33 -3 24 1 32 13 32 12 0 16 -8 13 -32z"/>
<path d="M2452 1557 l-102 -102 0 -728 0 -727 313 0 312 0 103 103 102 102 0
728 0 727 -313 0 -312 0 -103 -103z"/>
<path d="M1844 1508 c-28 -32 -174 -234 -174 -242 0 -3 8 -6 18 -6 10 1 51 49
105 125 49 68 88 128 88 132 1 17 -18 12 -37 -9z"/>
<path d="M1303 1497 c-18 -12 -33 -30 -33 -39 0 -20 15 -24 25 -8 16 26 25 3
25 -64 0 -70 -1 -75 -22 -78 -15 -2 -24 -11 -26 -26 -3 -22 -2 -23 70 -20 67
3 73 5 76 26 3 17 -2 22 -17 22 -20 0 -21 5 -21 105 0 102 -1 105 -22 104 -13
0 -38 -10 -55 -22z"/>
<path d="M1483 1496 c-25 -22 -28 -31 -31 -103 -3 -68 -1 -81 18 -105 44 -57
138 -24 154 53 15 75 -1 151 -34 169 -32 17 -78 11 -107 -14z m71 -32 c21 -20
22 -136 3 -153 -38 -31 -74 76 -48 142 12 31 23 34 45 11z"/>
<path d="M1661 1494 c-24 -30 -27 -63 -8 -86 37 -48 107 -15 107 51 0 20 -5
42 -12 49 -21 21 -65 14 -87 -14z m57 -42 c2 -24 -1 -32 -12 -32 -12 0 -16 10
-16 36 0 45 24 42 28 -4z"/>
<path d="M1815 1375 c-45 -44 -25 -115 31 -115 58 0 89 91 42 124 -31 22 -45
20 -73 -9z m50 -48 c0 -39 -19 -38 -23 2 -3 24 0 32 10 29 7 -3 13 -17 13 -31z"/>
<path d="M1287 942 l-107 -107 0 -418 0 -417 312 0 313 0 102 102 103 103 0
422 0 423 -308 0 -307 0 -108 -108z"/>
</g>
</svg>
