<?xml version="1.0" encoding="UTF-8" standalone="no"?>
<svg
   version="1.0"
   width="1280.000000pt"
   height="1280.000000pt"
   viewBox="0 0 1280.000000 1280.000000"
   preserveAspectRatio="xMidYMid meet"
   id="svg10"
   sodipodi:docname="1721865.svg"
   inkscape:version="1.2-beta (1b65182, 2022-04-05)"
   xmlns:inkscape="http://www.inkscape.org/namespaces/inkscape"
   xmlns:sodipodi="http://sodipodi.sourceforge.net/DTD/sodipodi-0.dtd"
   xmlns="http://www.w3.org/2000/svg"
   xmlns:svg="http://www.w3.org/2000/svg">
  <defs
     id="defs14" />
  <sodipodi:namedview
     id="namedview12"
     pagecolor="#505050"
     bordercolor="#ffffff"
     borderopacity="1"
     inkscape:pageshadow="0"
     inkscape:pageopacity="0"
     inkscape:pagecheckerboard="1"
     inkscape:deskcolor="#505050"
     inkscape:document-units="pt"
     showgrid="false"
     inkscape:zoom="0.51035156"
     inkscape:cx="852.35362"
     inkscape:cy="854.31305"
     inkscape:window-width="1920"
     inkscape:window-height="1043"
     inkscape:window-x="0"
     inkscape:window-y="0"
     inkscape:window-maximized="1"
     inkscape:current-layer="svg10" />
  <metadata
     id="metadata2">
Created by potrace 1.15, written by Peter Selinger 2001-2017
</metadata>
  <g
     transform="translate(0.000000,1280.000000) scale(0.100000,-0.100000)"
     fill="#000000"
     stroke="none"
     id="g8"
     style="fill:#f2f2f2">
    <path
       d="M6055 11684 c-969 -75 -1819 -365 -2600 -889 -301 -201 -533 -393 -795 -655 -267 -267 -456 -498 -665 -810 -475 -712 -749 -1461 -857 -2342 -20 -162 -22 -229 -22 -588 0 -429 10 -570 65 -888 186 -1085 697 -2070 1479 -2852 267 -267 498 -456 810 -665 638 -425 1331 -698 2081 -819 328 -53 427 -60 849 -60 422 0 521 7 849 60 1997 322 3653 1780 4226 3720 89 302 145 576 187 916 20 162 22 229 22 588 0 429 -10 572 -65 888 -125 724 -395 1408 -795 2016 -811 1231 -2096 2071 -3543 2316 -292 49 -440 61 -816 64 -198 2 -382 2 -410 0z m795 -829 c931 -97 1798 -474 2490 -1082 832 -731 1354 -1705 1500 -2795 117 -881 -39 -1792 -444 -2593 -264 -520 -612 -968 -1056 -1358 -1345 -1181 -3290 -1440 -4896 -653 -889 435 -1606 1145 -2048 2027 -635 1265 -632 2750 8 4014 264 520 612 968 1056 1358 670 588 1501 959 2400 1072 293 37 694 41 990 10z"
       id="path4"
       style="fill:#f2f2f2" />
    <path
       d="M5715 9361 c-48 -22 -79 -54 -100 -103 -13 -33 -15 -158 -15 -1048 l0 -1010 -1012 0 c-963 0 -1015 -1 -1053 -19 -48 -22 -79 -54 -100 -103 -13 -32 -15 -122 -15 -678 0 -556 2 -646 15 -678 21 -49 52 -81 100 -103 38 -18 90 -19 1053 -19 l1012 0 0 -1012 c0 -963 1 -1015 19 -1053 22 -48 54 -79 103 -100 32 -13 122 -15 680 -15 602 0 646 2 683 19 50 22 91 69 105 119 6 24 10 381 10 1040 l0 1002 1010 0 c890 0 1015 2 1048 15 49 21 81 52 103 100 17 38 19 79 19 685 0 604 -2 648 -19 685 -22 50 -69 91 -119 105 -24 6 -381 10 -1039 10 l-1003 0 0 1003 c0 658 -4 1015 -10 1039 -14 50 -55 97 -105 119 -37 17 -81 19 -685 19 -606 0 -647 -2 -685 -19z"
       id="path6"
       style="fill:#f2f2f2" />
  </g>
</svg>
