<?xml version="1.0" standalone="no"?>
<!DOCTYPE svg PUBLIC "-//W3C//DTD SVG 20010904//EN"
 "http://www.w3.org/TR/2001/REC-SVG-20010904/DTD/svg10.dtd">
<svg version="1.0" xmlns="http://www.w3.org/2000/svg"
 width="1235.000000pt" height="1280.000000pt" viewBox="0 0 1235.000000 1280.000000"
 preserveAspectRatio="xMidYMid meet">
<metadata>
Created by potrace 1.15, written by Peter Selinger 2001-2017
</metadata>
<g transform="translate(0.000000,1280.000000) scale(0.100000,-0.100000)"
fill="#000000" stroke="none">
<path d="M4165 12794 c-597 -44 -1068 -167 -1560 -409 -296 -146 -568 -322
-805 -524 -137 -116 -564 -517 -687 -645 -535 -557 -899 -1270 -1042 -2041
-77 -417 -88 -879 -31 -1305 165 -1238 869 -2348 1930 -3043 214 -140 501
-290 735 -385 901 -365 1919 -405 2825 -111 335 109 659 264 951 454 l96 63
799 -812 c3638 -3694 3874 -3932 3925 -3963 91 -54 134 -66 244 -66 94 -1 105
2 175 35 78 36 87 43 351 289 176 163 197 186 228 247 74 145 63 324 -27 460
-16 23 -962 990 -2103 2149 -1141 1158 -2181 2216 -2312 2349 l-239 243 69 78
c383 436 681 997 839 1576 207 764 186 1598 -58 2357 -360 1120 -1161 2051
-2213 2570 -457 225 -903 356 -1425 416 -120 14 -561 26 -665 18z m122 -1234
c655 -54 1242 -275 1757 -661 818 -615 1315 -1537 1364 -2529 38 -770 -178
-1487 -628 -2088 -138 -185 -228 -271 -403 -387 -426 -281 -904 -454 -1411
-510 -259 -29 -643 -16 -911 30 -1331 230 -2423 1277 -2720 2609 -59 268 -69
364 -69 711 0 282 3 337 22 462 90 573 298 1067 630 1491 127 163 173 210 287
291 601 430 1354 640 2082 581z"/>
</g>
</svg>
